<?xml version="1.0" encoding="iso-8859-1"?>
<!-- Generator: Adobe Illustrator 19.0.0, SVG Export Plug-In . SVG Version: 6.00 Build 0)  -->
<svg version="1.1" id="Capa_1" xmlns="http://www.w3.org/2000/svg" xmlns:xlink="http://www.w3.org/1999/xlink" x="0px" y="0px"
	 viewBox="0 0 511.998 511.998" style="enable-background:new 0 0 511.998 511.998;" xml:space="preserve">
<path style="fill:#F2937E;" d="M409.451,268.391c0-51.11-25.387-92.71-89.395-135.609c-40.244-26.972-77.113-71.664-90.5-117.406
	c-2.461-8.407-13.241-10.663-18.854-3.938c-60.658,72.674,5.555,174.455-20.495,202.633c-15.899,17.199-39.996-11.756-55.257-56.331
	c-3.284-9.591-16.861-9.68-20.233-0.12c-13.846,39.253-21.789,79.244-21.789,110.77c0,94.166,70.856,170.502,158.261,170.502
	S409.451,362.557,409.451,268.391z"/>
<path style="fill:#A28577;" d="M95.041,503.572c-32.787,5.781-64.052-16.111-69.833-48.898s16.111-64.052,48.898-69.833
	l203.093-35.811l20.936,118.731L95.041,503.572z"/>
<path style="opacity:0.1;enable-background:new    ;" d="M93.401,381.439l-19.295,3.402c-32.787,5.781-54.679,37.047-48.898,69.833
	c5.781,32.787,37.047,54.679,69.833,48.898l126.165-22.246C120.056,481.748,57.404,427.168,93.401,381.439z"/>
<circle style="fill:#FFF0C0;" cx="287.67" cy="408.4" r="60.28"/>
<path style="opacity:0.2;enable-background:new    ;" d="M73.007,433.312c-3.571,0-6.735-2.561-7.377-6.199
	c-0.72-4.079,2.004-7.969,6.083-8.688l26.467-4.667c4.076-0.717,7.969,2.004,8.688,6.084c0.72,4.079-2.004,7.969-6.083,8.689
	l-26.467,4.667C73.878,433.275,73.44,433.312,73.007,433.312z"/>
<path style="opacity:0.1;enable-background:new    ;" d="M142.68,463.024c-3.571,0-6.735-2.561-7.377-6.199
	c-0.72-4.079,2.004-7.969,6.083-8.689l26.466-4.667c4.079-0.72,7.97,2.004,8.688,6.084c0.72,4.079-2.004,7.969-6.083,8.688
	l-26.466,4.667C143.551,462.986,143.112,463.024,142.68,463.024z"/>
<path style="fill:#A28577;" d="M427.432,504.498c33.293,0,60.281-26.989,60.281-60.281s-26.989-60.281-60.281-60.281H221.205
	v120.563L427.432,504.498L427.432,504.498z"/>
<path style="opacity:0.1;enable-background:new    ;" d="M487.713,444.216c0-11.827-3.419-22.849-9.304-32.158
	c-5.656,56.453-47.695,61.576-67.435,61.576c-18.061,0-135.863,0-189.769,0v30.863h206.226
	C460.724,504.498,487.713,477.509,487.713,444.216z"/>
<circle style="fill:#DDAF89;" cx="221.21" cy="444.22" r="60.28"/>
<path style="opacity:0.1;enable-background:new    ;" d="M213.632,477.463c-0.721,0-1.453-0.104-2.179-0.325
	c-7.543-2.287-14.137-7.156-18.564-13.712c-2.318-3.433-1.416-8.095,2.017-10.413c3.434-2.32,8.095-1.416,10.413,2.017
	c2.506,3.71,6.23,6.464,10.486,7.754c3.964,1.202,6.203,5.389,5.002,9.353C219.824,475.376,216.85,477.463,213.632,477.463z"/>
<path style="opacity:0.1;enable-background:new    ;" d="M248.428,451.652c-4.143,0-7.5-3.358-7.5-7.5
	c0-3.902-1.147-7.663-3.319-10.877c-3.634-5.378-9.669-8.588-16.145-8.588c-2.631,0-5.18,0.514-7.574,1.527
	c-3.815,1.612-8.216-0.171-9.829-3.986c-1.614-3.815,0.171-8.216,3.985-9.83c4.254-1.799,8.769-2.711,13.418-2.711
	c11.467,0,22.148,5.679,28.574,15.19c3.854,5.703,5.891,12.368,5.891,19.274C255.928,448.294,252.57,451.652,248.428,451.652z"/>
<path style="fill:#F2937E;" d="M384.288,12.502c17.186,16.976,29.062,40.24,29.397,71.183c0.242,22.28-17.739,41.401-40.02,41.43
	c-22.16,0.029-40.134-17.927-40.134-40.08c0-34.409,24.94-35.377,34.297-68.003C369.904,9.793,378.931,7.21,384.288,12.502z"/>
<g>
	<ellipse style="fill:#FFFFFF;" cx="183.59" cy="298.52" rx="24.942" ry="19.863"/>
	<ellipse style="fill:#FFFFFF;" cx="318.79" cy="298.52" rx="24.942" ry="19.863"/>
</g>
<path style="opacity:0.2;enable-background:new    ;" d="M369.56,481.135h-32.304c-4.143,0-7.5-3.358-7.5-7.5s3.357-7.5,7.5-7.5
	h32.304c4.143,0,7.5,3.358,7.5,7.5S373.702,481.135,369.56,481.135z"/>
<path style="opacity:0.1;enable-background:new    ;" d="M427.54,429.781h-33.132c-4.142,0-7.5-3.358-7.5-7.5s3.358-7.5,7.5-7.5
	h33.132c4.143,0,7.5,3.358,7.5,7.5S431.683,429.781,427.54,429.781z"/>
<path d="M315.881,139.012c60.33,40.434,86.07,79.126,86.07,129.379c0,15.602-2.036,31.033-6.052,45.862
	c-1.083,3.999,1.281,8.117,5.279,9.2c0.656,0.178,1.315,0.263,1.965,0.263c3.304,0,6.329-2.2,7.234-5.542
	c4.361-16.108,6.573-32.857,6.573-49.783c0-55.118-28.596-98.863-92.719-141.839c-15.089-10.113-29.895-23.007-42.817-37.289
	c-2.779-3.073-7.522-3.309-10.594-0.53c-3.071,2.779-3.309,7.522-0.529,10.593C284.025,114.504,299.789,128.227,315.881,139.012z
	 M373.612,132.615h0.063c12.504-0.016,24.342-5.038,33.334-14.14c9.148-9.261,14.315-21.971,14.176-34.871
	c-0.328-30.316-10.97-56.033-31.627-76.438c-4.364-4.312-10.527-5.953-16.474-4.396c-6.072,1.59-10.732,6.148-12.465,12.193
	c-3.692,12.874-9.945,20.007-16.565,27.56c-8.86,10.107-18.022,20.559-18.022,42.51c0,12.721,4.957,24.677,13.958,33.667
	C348.976,127.675,360.913,132.615,373.612,132.615z M355.333,52.411c7.071-8.067,15.087-17.211,19.705-33.313
	c0.373-1.301,1.415-1.704,1.846-1.817c0.185-0.048,0.398-0.083,0.626-0.083c0.472,0,1.01,0.149,1.507,0.64l0,0
	c17.744,17.526,26.885,39.708,27.168,65.929c0.098,8.925-3.491,17.734-9.847,24.166c-6.157,6.232-14.212,9.671-22.683,9.682h-0.044
	c-8.694,0-16.87-3.383-23.022-9.527c-6.163-6.156-9.558-14.343-9.558-23.053C341.031,68.727,347.343,61.527,355.333,52.411z
	 M427.432,376.435h-44.515c5.408-7.593,10.25-15.637,14.453-24.054c1.851-3.706,0.347-8.21-3.359-10.06
	c-3.708-1.85-8.21-0.347-10.061,3.359c-5.507,11.029-12.205,21.352-19.913,30.755h-16.6c-13.708-25.731-42.412-39.924-71.54-34.791
	l-70.832,12.49c-4.079,0.719-6.803,4.609-6.083,8.689c0.642,3.639,3.806,6.199,7.377,6.199c0.433,0,0.871-0.038,1.312-0.115
	l28.952-5.105c-3.346,3.833-6.278,8.064-8.723,12.634h-6.693c-37.375,0-67.781,30.407-67.781,67.782
	c0,14.613,4.663,28.149,12.559,39.23l-72.246,12.739c-3.087,0.544-6.157,0.808-9.19,0.807
	c-25.118-0.001-47.444-18.047-51.954-43.621c-5.054-28.662,14.152-56.091,42.814-61.145l53.715-9.471
	c0.002,0,0.004-0.001,0.005-0.001l44.037-7.765c4.079-0.719,6.803-4.609,6.083-8.689c-0.719-4.079-4.61-6.802-8.689-6.084
	l-39.291,6.928c-19.913-28.252-30.84-63.13-30.84-98.755c0-30.325,7.786-69.79,21.362-108.275c0.648-1.838,2.153-2.117,3.007-2.117
	h0.018c0.859,0.004,2.396,0.291,3.039,2.171c12.92,37.736,30.709,62.393,47.586,65.957c7.463,1.578,14.665-0.896,20.273-6.964
	c12.795-13.84,8.521-37.6,3.108-67.682c-7.524-41.822-16.889-93.871,17.638-135.236c1.151-1.379,2.568-1.327,3.315-1.171
	c0.746,0.155,2.075,0.675,2.582,2.41c5.217,17.822,13.874,35.82,25.733,53.493c2.309,3.44,6.967,4.357,10.406,2.049
	c3.44-2.308,4.357-6.967,2.049-10.407c-11.002-16.398-19.007-33.001-23.792-49.349c-1.918-6.556-7.252-11.492-13.919-12.881
	c-6.656-1.39-13.518,1.003-17.891,6.244c-39.014,46.742-28.536,104.98-20.886,147.504c4.488,24.946,8.364,46.489,0.642,54.843
	c-2.571,2.781-4.559,2.81-6.16,2.471c-2.279-0.481-8.539-3.004-17.407-16.006c-7.022-10.296-13.623-24.174-19.087-40.133
	c-2.548-7.443-9.284-12.276-17.161-12.312c-0.03,0-0.059,0-0.089,0c-7.823,0-14.55,4.753-17.151,12.127
	c-14.326,40.613-22.216,80.838-22.216,113.265c0,36.307,10.47,71.934,29.667,101.606l-42.294,7.457
	c-36.807,6.49-61.471,41.715-54.98,78.522c5.791,32.844,34.46,56.02,66.719,56.018c3.893,0,7.84-0.337,11.803-1.036l81.813-14.426
	c11.715,9.657,26.717,15.465,43.05,15.465h206.227c37.375,0,67.781-30.407,67.781-67.781
	C495.213,406.842,464.807,376.435,427.432,376.435z M278.501,356.416c19.842-3.5,39.444,4.531,51.184,20.018H245.68
	C253.634,365.981,265.272,358.749,278.501,356.416z M221.205,496.998c-29.104,0-52.781-23.678-52.781-52.781
	c0-29.104,23.678-52.782,52.781-52.782s52.781,23.678,52.781,52.782C273.987,473.32,250.309,496.998,221.205,496.998z
	 M427.432,496.998H263.663c15.427-12.435,25.323-31.47,25.323-52.781c0-21.312-9.896-40.347-25.323-52.782h79.079
	c0.009,0,0.018,0.002,0.027,0.002c0.013,0,0.025-0.002,0.038-0.002h84.625c29.104,0,52.781,23.678,52.781,52.782
	C480.213,473.32,456.535,496.998,427.432,496.998z M284.88,276.909c0,4.142,3.357,7.5,7.5,7.5s7.5-3.358,7.5-7.5
	c0-2.411,1.961-4.372,4.372-4.372s4.372,1.961,4.372,4.372c0,4.142,3.357,7.5,7.5,7.5c4.142,0,7.5-3.358,7.5-7.5
	c0-10.682-8.691-19.372-19.372-19.372C293.57,257.537,284.88,266.227,284.88,276.909z M198.128,257.537
	c-10.682,0-19.372,8.69-19.372,19.372c0,4.142,3.357,7.5,7.5,7.5s7.5-3.358,7.5-7.5c0-2.411,1.961-4.372,4.372-4.372
	s4.372,1.961,4.372,4.372c0,4.142,3.357,7.5,7.5,7.5s7.5-3.358,7.5-7.5C217.5,266.227,208.81,257.537,198.128,257.537z
	 M258.129,285.859c-1.752,2.01-4.281,3.164-6.938,3.164s-5.187-1.153-6.939-3.164c-2.722-3.123-7.46-3.448-10.582-0.726
	c-3.123,2.722-3.447,7.459-0.727,10.581c4.603,5.281,11.254,8.309,18.248,8.309c6.995,0,13.645-3.029,18.247-8.31
	c2.722-3.123,2.396-7.86-0.728-10.582C265.588,282.409,260.85,282.735,258.129,285.859z"/>
<g>
</g>
<g>
</g>
<g>
</g>
<g>
</g>
<g>
</g>
<g>
</g>
<g>
</g>
<g>
</g>
<g>
</g>
<g>
</g>
<g>
</g>
<g>
</g>
<g>
</g>
<g>
</g>
<g>
</g>
</svg>
