<?xml version="1.0" encoding="iso-8859-1"?>
<!-- Generator: Adobe Illustrator 19.0.0, SVG Export Plug-In . SVG Version: 6.00 Build 0)  -->
<svg version="1.1" id="Layer_1" xmlns="http://www.w3.org/2000/svg" xmlns:xlink="http://www.w3.org/1999/xlink" x="0px" y="0px"
	 viewBox="0 0 512 512" style="enable-background:new 0 0 512 512;" xml:space="preserve">
<g>
	<path style="fill:#547580;" d="M25.6,499.2c-4.71,0-8.533-3.814-8.533-8.525c0,0,0,0,0-0.009v-59.733
		c0-4.71,3.823-8.533,8.533-8.533s8.533,3.823,8.533,8.533v59.733C34.133,495.377,30.319,499.2,25.6,499.2L25.6,499.2z"/>
	<path style="fill:#547580;" d="M486.4,499.2c-4.71,0-8.533-3.814-8.533-8.525c0,0,0,0,0-0.009v-59.733
		c0-4.71,3.823-8.533,8.533-8.533s8.533,3.823,8.533,8.533v59.733C494.933,495.377,491.119,499.2,486.4,499.2L486.4,499.2z"/>
</g>
<path style="fill:#4FBA6F;" d="M409.6,456.533h-86.613l-59.221-128.256c-1.954-4.292-7.023-6.178-11.307-4.224
	c-1.869,0.853-3.371,2.355-4.224,4.224l-59.221,128.256H102.4L256,98.133l5.461,12.8l12.8,29.867L409.6,456.533z"/>
<g>
	<polygon style="fill:#4C8056;" points="215.979,398.08 189.013,456.533 102.4,456.533 128,396.8 213.333,396.8 	"/>
	<polygon style="fill:#4C8056;" points="409.6,456.533 322.987,456.533 296.021,398.08 298.667,396.8 384,396.8 	"/>
</g>
<path style="fill:#24AE5F;" d="M93.867,456.533h324.267c4.71,0,8.533,3.823,8.533,8.533v17.067c0,4.71-3.823,8.533-8.533,8.533
	H93.867c-4.71,0-8.533-3.823-8.533-8.533v-17.067C85.333,460.356,89.156,456.533,93.867,456.533z"/>
<path style="fill:#2C3E50;" d="M93.867,456.533h324.267c4.71,0,8.533,3.823,8.533,8.533v17.067c0,4.71-3.823,8.533-8.533,8.533
	H93.867c-4.71,0-8.533-3.823-8.533-8.533v-17.067C85.333,460.356,89.156,456.533,93.867,456.533z"/>
<path style="fill:#2C2F38;" d="M322.987,456.533H189.013l59.238-128.29c1.98-4.275,7.049-6.144,11.324-4.173
	c1.843,0.853,3.319,2.33,4.173,4.173L322.987,456.533z"/>
<path style="fill:#F3D55B;" d="M503.467,92.416c0.043,20.198-9.728,39.159-26.197,50.859c-3.081-1.63-6.502-2.475-9.984-2.475
	h-49.323c26.709-21.803,30.694-61.124,8.892-87.834c-4.813-5.897-10.658-10.863-17.254-14.652
	c9.481-5.598,20.309-8.516,31.317-8.448C475.443,29.918,503.415,57.89,503.467,92.416z"/>
<g>
	<path style="fill:#9FC9D3;" d="M486.4,157.867c-0.631,9.958-9.148,17.562-19.115,17.067H343.381
		c-4.966,0.077-9.779-1.724-13.483-5.035c-3.533-3.004-5.589-7.39-5.632-12.032c0.631-9.958,9.148-17.562,19.115-17.067h-69.12
		l-12.8-29.867c2.85-2.731,6.639-4.258,10.581-4.267h104.448c4.301-0.017,8.405,1.818,11.264,5.035
		c3.098,3.234,4.813,7.552,4.779,12.032c0.23,9.122-6.921,16.734-16.043,17.067h90.795c3.482,0,6.903,0.845,9.984,2.475
		c1.246,0.734,2.423,1.596,3.499,2.56C484.301,148.838,486.357,153.225,486.4,157.867z"/>
	<path style="fill:#9FC9D3;" d="M8.533,81.067c0.631,9.958,9.148,17.562,19.115,17.067h123.904
		c4.966,0.077,9.779-1.724,13.483-5.035c3.533-3.004,5.589-7.39,5.632-12.032c-0.631-9.958-9.148-17.562-19.115-17.067h71.339
		c4.301,0.017,8.405-1.818,11.264-5.035c3.098-3.234,4.813-7.552,4.779-12.032c0.239-9.122-6.921-16.734-16.043-17.067H118.443
		c-4.301-0.017-8.405,1.818-11.264,5.035c-3.098,3.234-4.813,7.552-4.779,12.032c-0.23,9.122,6.921,16.734,16.043,17.067H27.648
		c-3.482,0-6.903,0.845-9.984,2.475c-1.246,0.734-2.423,1.596-3.499,2.56C10.633,72.038,8.576,76.425,8.533,81.067z"/>
</g>
<path id="SVGCleanerId_0" style="fill:#F3D55B;" d="M341.333,64c-4.71,0-8.533-3.814-8.533-8.525c0,0,0,0,0-0.009V21.333
	c0-4.71,3.823-8.533,8.533-8.533s8.533,3.823,8.533,8.533v34.133C349.867,60.177,346.052,64,341.333,64L341.333,64z"/>
<g>
	<path id="SVGCleanerId_0_1_" style="fill:#F3D55B;" d="M341.333,64c-4.71,0-8.533-3.814-8.533-8.525c0,0,0,0,0-0.009V21.333
		c0-4.71,3.823-8.533,8.533-8.533s8.533,3.823,8.533,8.533v34.133C349.867,60.177,346.052,64,341.333,64L341.333,64z"/>
</g>
<path id="SVGCleanerId_1" style="fill:#F3D55B;" d="M358.4,46.933h-34.133c-4.71,0-8.533-3.823-8.533-8.533s3.823-8.533,8.533-8.533
	H358.4c4.71,0,8.533,3.823,8.533,8.533S363.11,46.933,358.4,46.933z"/>
<g>
	<path id="SVGCleanerId_1_1_" style="fill:#F3D55B;" d="M358.4,46.933h-34.133c-4.71,0-8.533-3.823-8.533-8.533
		s3.823-8.533,8.533-8.533H358.4c4.71,0,8.533,3.823,8.533,8.533S363.11,46.933,358.4,46.933z"/>
</g>
<path id="SVGCleanerId_2" style="fill:#F3D55B;" d="M119.467,192c-4.71,0-8.533-3.814-8.533-8.525c0,0,0,0,0-0.009v-34.133
	c0-4.71,3.823-8.533,8.533-8.533c4.71,0,8.533,3.823,8.533,8.533v34.133C128,188.177,124.186,192,119.467,192L119.467,192z"/>
<g>
	<path id="SVGCleanerId_2_1_" style="fill:#F3D55B;" d="M119.467,192c-4.71,0-8.533-3.814-8.533-8.525c0,0,0,0,0-0.009v-34.133
		c0-4.71,3.823-8.533,8.533-8.533c4.71,0,8.533,3.823,8.533,8.533v34.133C128,188.177,124.186,192,119.467,192L119.467,192z"/>
</g>
<path id="SVGCleanerId_3" style="fill:#F3D55B;" d="M136.533,174.933H102.4c-4.71,0-8.533-3.823-8.533-8.533
	s3.823-8.533,8.533-8.533h34.133c4.71,0,8.533,3.823,8.533,8.533S141.244,174.933,136.533,174.933z"/>
<g>
	<path id="SVGCleanerId_3_1_" style="fill:#F3D55B;" d="M136.533,174.933H102.4c-4.71,0-8.533-3.823-8.533-8.533
		s3.823-8.533,8.533-8.533h34.133c4.71,0,8.533,3.823,8.533,8.533S141.244,174.933,136.533,174.933z"/>
</g>
<g>
	<path style="fill:#464F5D;" d="M43.887,465.067H8.533c-4.71,0-8.533-3.823-8.533-8.533S3.823,448,8.533,448h30.481L248.661,93.79
		c2.398-4.053,7.629-5.393,11.691-2.995c4.053,2.398,5.393,7.629,2.995,11.691l0,0l-212.113,358.4
		C49.69,463.479,46.899,465.067,43.887,465.067z"/>
	<path style="fill:#464F5D;" d="M503.467,465.067h-35.354c-3.012,0-5.811-1.587-7.339-4.19l-212.113-358.4
		c-2.398-4.053-1.058-9.284,2.995-11.691c4.053-2.398,9.284-1.058,11.691,2.995L472.986,448h30.481c4.71,0,8.533,3.823,8.533,8.533
		S508.177,465.067,503.467,465.067z"/>
</g>
<g>
</g>
<g>
</g>
<g>
</g>
<g>
</g>
<g>
</g>
<g>
</g>
<g>
</g>
<g>
</g>
<g>
</g>
<g>
</g>
<g>
</g>
<g>
</g>
<g>
</g>
<g>
</g>
<g>
</g>
</svg>
