<?xml version="1.0" encoding="iso-8859-1"?>
<!-- Generator: Adobe Illustrator 19.0.0, SVG Export Plug-In . SVG Version: 6.00 Build 0)  -->
<svg version="1.1" id="Capa_1" xmlns="http://www.w3.org/2000/svg" xmlns:xlink="http://www.w3.org/1999/xlink" x="0px" y="0px"
	 viewBox="0 0 511.998 511.998" style="enable-background:new 0 0 511.998 511.998;" xml:space="preserve">
<path style="fill:#489A6D;" d="M476.772,374.497c-3.637-3.155-5.623-7.872-5.01-12.648c1.937-15.099-2.887-30.898-14.484-42.495
	c-13.744-13.744-33.389-17.974-50.775-12.708c-5.016,1.519-10.451,0.325-14.281-3.252c-33.02-30.832-77.346-49.708-126.088-49.708
	c-68.831,0-128.871,37.628-160.677,93.436c-2.466,4.327-7.148,6.86-12.126,6.695c-0.876-0.029-1.756-0.044-2.64-0.044
	c-40.701,0-74.698,28.699-82.861,66.964c-1.948,9.134,4.949,17.761,14.289,17.761h467.738c9.276,0,16.243-8.534,14.322-17.609
	C500.291,402.523,490.448,386.36,476.772,374.497z"/>
<polygon style="fill:#C27C59;" points="357.005,272.191 296.452,272.191 285.108,438.498 368.349,438.498 "/>
<path style="opacity:0.1;enable-background:new    ;" d="M357.005,272.191h-60.553l-3.582,52.512
	c10.416,4.378,21.85,6.813,33.858,6.813c12.009,0,23.442-2.434,33.858-6.813L357.005,272.191z"/>
<g style="opacity:0.1;">
	<path d="M337.909,361.772c-4.007,0-7.331-3.168-7.489-7.207l-1.06-27.161c-0.162-4.139,3.063-7.625,7.202-7.787
		c4.123-0.175,7.625,3.062,7.787,7.202l1.06,27.161c0.162,4.139-3.063,7.625-7.202,7.787
		C338.107,361.771,338.008,361.772,337.909,361.772z"/>
	<path d="M314.041,417.89c-0.088,0-0.176-0.001-0.265-0.004c-4.14-0.143-7.379-3.616-7.236-7.755l1.002-28.938
		c0.144-4.139,3.598-7.373,7.755-7.236c4.14,0.144,7.379,3.615,7.236,7.755l-1.002,28.938
		C321.391,414.701,318.063,417.89,314.041,417.89z"/>
</g>
<path style="fill:#54B88B;" d="M435.372,145.16c-5.014-2.117-8.541-6.639-9.327-12.024c-4.919-33.729-33.947-59.634-69.04-59.634
	c-8.736,0-17.098,1.605-24.805,4.537c-3.531,1.343-7.412,1.343-10.943,0c-7.708-2.932-16.069-4.537-24.805-4.537
	c-35.094,0-64.121,25.905-69.04,59.634c-0.785,5.386-4.312,9.907-9.327,12.024c-25.07,10.584-42.669,35.384-42.669,64.308
	c0,38.546,31.248,69.794,69.794,69.794c4.057,0,8.03-0.354,11.894-1.024c4.396-0.762,8.938,0.512,12.308,3.435
	c15.358,13.32,35.391,21.39,57.316,21.39c21.926,0,41.958-8.07,57.316-21.39c3.37-2.923,7.912-4.197,12.308-3.435
	c3.865,0.67,7.838,1.024,11.894,1.024c38.546,0,69.794-31.248,69.794-69.794C478.042,180.544,460.442,155.744,435.372,145.16z"/>
<path style="opacity:0.1;enable-background:new    ;" d="M270.882,234.736c-29.937-12.38-29.484-48.963-15.596-74.523
	c3.916-7.207,5.351-15.498,3.716-23.536c-3.633-17.862-1.669-44.193,11.862-58.32c-22.858,9.018-39.813,29.75-43.457,54.806
	c-0.782,5.377-4.317,9.884-9.323,11.997c-25.07,10.584-42.669,35.384-42.669,64.307c0,38.546,31.248,69.794,69.794,69.794
	c4.057,0,8.03-0.354,11.894-1.024c4.396-0.762,8.938,0.512,12.308,3.435c15.358,13.32,35.391,21.39,57.316,21.39
	c11.783,0,23.01-2.349,33.268-6.573c-36.153,1.966-61.433-24.206-70.845-44.211C285.425,244.358,278.972,238.081,270.882,234.736z"
	/>
<polygon style="fill:#C27C59;" points="201.567,294.849 149.264,294.849 139.465,438.498 211.365,438.498 "/>
<path style="opacity:0.1;enable-background:new    ;" d="M201.567,294.849h-52.303l-3.094,45.358
	c8.997,3.782,18.873,5.885,29.246,5.885s20.249-2.103,29.246-5.885L201.567,294.849z"/>
<g style="opacity:0.1;">
	<path d="M162.997,386.969c-0.124,0-0.25-0.003-0.376-0.009c-4.137-0.204-7.326-3.723-7.121-7.86l0.971-19.691
		c0.204-4.138,3.737-7.323,7.86-7.122c4.137,0.204,7.326,3.723,7.122,7.86l-0.971,19.691
		C170.283,383.85,166.969,386.969,162.997,386.969z"/>
	<path d="M189.128,425.193c-3.924,0-7.224-3.051-7.478-7.022l-1.295-20.27c-0.264-4.134,2.873-7.699,7.007-7.963
		c4.136-0.26,7.699,2.873,7.963,7.007l1.295,20.27c0.264,4.134-2.873,7.699-7.007,7.963
		C189.451,425.188,189.289,425.193,189.128,425.193z"/>
</g>
<path style="fill:#B5E489;" d="M269.257,185.124c-4.331-1.829-7.377-5.734-8.056-10.386c-4.249-29.134-29.322-51.509-59.634-51.509
	c-7.546,0-14.768,1.387-21.426,3.919c-3.05,1.16-6.402,1.16-9.452,0c-6.658-2.532-13.88-3.919-21.426-3.919
	c-30.313,0-55.386,22.376-59.634,51.509c-0.678,4.652-3.725,8.558-8.056,10.386c-21.655,9.142-36.856,30.563-36.856,55.546
	c0,33.295,26.991,60.286,60.286,60.286c3.504,0,6.936-0.305,10.274-0.884c3.797-0.658,7.72,0.442,10.631,2.967
	c13.266,11.505,30.569,18.475,49.507,18.475c18.939,0,36.242-6.97,49.507-18.475c2.911-2.525,6.835-3.625,10.631-2.967
	c3.338,0.579,6.77,0.884,10.274,0.884c33.295,0,60.286-26.991,60.286-60.286C306.114,215.688,290.912,194.266,269.257,185.124z"/>
<path style="opacity:0.1;enable-background:new    ;" d="M127.178,262.496c-25.858-10.694-25.467-42.292-13.471-64.37
	c3.382-6.225,4.622-13.387,3.209-20.329c-3.138-15.428-1.442-38.172,10.246-50.375c-19.744,7.79-34.389,25.696-37.536,47.339
	c-0.675,4.644-3.729,8.538-8.052,10.363c-21.655,9.142-36.856,30.563-36.856,55.546c0,33.295,26.991,60.286,60.286,60.286
	c3.504,0,6.936-0.305,10.274-0.884c3.797-0.658,7.72,0.442,10.631,2.967c13.266,11.505,30.569,18.475,49.507,18.475
	c10.178,0,19.875-2.029,28.736-5.677c-31.228,1.698-53.063-20.908-61.193-38.187C139.739,270.808,134.165,265.386,127.178,262.496z"
	/>
<g style="opacity:0.1;">
	<path d="M425.608,404.61c-1.92,0-3.838-0.732-5.303-2.197c-2.929-2.929-2.929-7.677,0-10.607l7.944-7.945
		c2.93-2.929,7.677-2.929,10.607-0.001c2.929,2.929,2.929,7.678,0,10.607l-7.944,7.945
		C429.446,403.878,427.527,404.61,425.608,404.61z"/>
	<path d="M243.242,378.146c-1.92,0-3.839-0.732-5.304-2.197c-2.929-2.929-2.928-7.678,0-10.607l7.945-7.944
		c2.929-2.928,7.678-2.928,10.606,0.001c2.929,2.929,2.929,7.678,0,10.607l-7.945,7.944
		C247.081,377.413,245.161,378.146,243.242,378.146z"/>
	<path d="M400.167,350.881c-1.919,0-3.839-0.732-5.303-2.197l-7.944-7.944c-2.929-2.929-2.929-7.678,0-10.606
		c2.929-2.929,7.678-2.929,10.606,0l7.944,7.944c2.929,2.929,2.929,7.678,0,10.607C404.006,350.148,402.087,350.881,400.167,350.881
		z"/>
	<path d="M99.734,416.092c-1.92,0-3.839-0.732-5.303-2.197l-7.944-7.944c-2.929-2.929-2.929-7.678,0-10.607s7.678-2.929,10.606,0
		l7.944,7.944c2.929,2.929,2.929,7.678,0,10.606C103.572,415.36,101.653,416.092,99.734,416.092z"/>
</g>
<path d="M218.862,215.744c4.142,0,7.5-3.358,7.5-7.5v-7.212c0-4.142-3.358-7.5-7.5-7.5s-7.5,3.358-7.5,7.5v7.212
	C211.362,212.386,214.719,215.744,218.862,215.744z M192.524,213.492c2.721-3.123,2.396-7.86-0.727-10.582
	c-3.123-2.721-7.861-2.396-10.582,0.727c-1.465,1.682-3.58,2.646-5.8,2.646s-4.335-0.964-5.8-2.646
	c-2.721-3.123-7.459-3.448-10.582-0.727c-3.123,2.722-3.448,7.459-0.727,10.582c4.315,4.951,10.551,7.79,17.108,7.79
	C181.973,221.282,188.209,218.443,192.524,213.492z M131.969,193.532c-4.142,0-7.5,3.358-7.5,7.5v7.212c0,4.142,3.358,7.5,7.5,7.5
	s7.5-3.358,7.5-7.5v-7.212C139.469,196.89,136.111,193.532,131.969,193.532z M511.515,419.336
	c-4.117-19.456-14.711-37.392-29.83-50.504c-1.836-1.593-2.765-3.846-2.485-6.028c2.322-18.099-3.736-35.869-16.62-48.752
	c-15.256-15.256-37.576-20.843-58.252-14.583c-2.48,0.751-5.157,0.154-6.988-1.556c-3.306-3.087-6.772-6.071-10.337-8.952
	c0.654-0.537,1.315-1.065,1.956-1.62c1.668-1.446,3.954-2.085,6.114-1.712c4.341,0.753,8.774,1.134,13.175,1.134
	c42.62,0,77.294-34.674,77.294-77.294c0-11.159-2.33-21.928-6.923-32.007c-1.719-3.771-6.167-5.432-9.935-3.714
	c-3.77,1.718-5.432,6.166-3.714,9.935c3.698,8.113,5.573,16.788,5.573,25.787c0,34.349-27.945,62.294-62.294,62.294
	c-3.544,0-7.115-0.308-10.613-0.914c-6.651-1.153-13.395,0.727-18.504,5.159c-14.54,12.61-33.15,19.555-52.402,19.555
	c-11.404,0-22.6-2.434-32.893-7.087c12.215-12.266,19.778-29.168,19.778-47.805c0-27.313-16.266-51.828-41.439-62.456
	c-1.926-0.813-3.254-2.518-3.552-4.559c-2.327-15.954-10.33-30.604-22.535-41.25c-2.93-2.555-6.062-4.829-9.345-6.824
	c7.734-26.13,32.031-44.58,59.709-44.58c7.63,0,15.079,1.362,22.14,4.047c5.247,1.995,11.027,1.995,16.275,0
	c7.06-2.686,14.509-4.047,22.139-4.047c30.704,0,57.195,22.878,61.619,53.216c1.169,8.015,6.339,14.688,13.831,17.851
	c4.932,2.083,9.589,4.804,13.843,8.089c1.365,1.055,2.978,1.565,4.579,1.565c2.244,0,4.463-1.003,5.941-2.916
	c2.532-3.278,1.927-7.988-1.351-10.52c-5.276-4.075-11.055-7.452-17.178-10.037c-2.614-1.104-4.417-3.42-4.822-6.197
	c-2.653-18.191-11.779-34.895-25.696-47.035c-14.059-12.263-32.088-19.017-50.766-19.017c-9.459,0-18.702,1.691-27.471,5.027
	c-1.809,0.688-3.802,0.688-5.611,0c-8.77-3.335-18.013-5.027-27.472-5.027c-33.595,0-63.161,21.916-73.421,53.224
	c-6.865-2.292-14.105-3.497-21.464-3.497c-8.294,0-16.4,1.483-24.092,4.409c-1.328,0.505-2.79,0.505-4.119-0.001
	c-7.691-2.925-15.797-4.409-24.092-4.409c-16.38,0-32.191,5.923-44.521,16.677c-12.205,10.646-20.208,25.296-22.535,41.25
	c-0.298,2.042-1.626,3.746-3.552,4.559c-25.173,10.628-41.439,35.144-41.439,62.456c0,37.377,30.409,67.786,67.786,67.786
	c3.86,0,7.748-0.334,11.555-0.995c1.565-0.269,3.225,0.193,4.436,1.244c0.612,0.531,1.243,1.037,1.869,1.548
	c-9.128,10.19-17.166,21.301-23.922,33.155c-1.066,1.871-3.124,2.985-5.359,2.912c-0.959-0.032-1.923-0.048-2.891-0.048
	c-21.241,0-41.975,7.398-58.383,20.829c-16.177,13.243-27.475,31.735-31.813,52.07c-1.409,6.604,0.214,13.396,4.452,18.632
	c4.213,5.207,10.473,8.193,17.172,8.193h22.599c4.142,0,7.5-3.358,7.5-7.5s-3.358-7.5-7.5-7.5H22.118
	c-2.945,0-4.717-1.647-5.512-2.629c-1.376-1.701-1.902-3.913-1.442-6.068c7.544-35.362,39.307-61.028,75.526-61.028
	c0.799,0,1.596,0.013,2.391,0.04c7.826,0.271,15.061-3.754,18.892-10.477c6.568-11.524,14.435-22.303,23.428-32.112
	c1.498,0.823,3.015,1.607,4.558,2.335l-7.499,109.939H80.601c-4.142,0-7.5,3.358-7.5,7.5s3.358,7.5,7.5,7.5h58.858
	c0.005,0,0.009,0.001,0.014,0.001c0.003,0,0.007-0.001,0.01-0.001h71.865c0.003,0,0.007,0.001,0.01,0.001
	c0.005,0,0.009-0.001,0.014-0.001h73.729c0.005,0,0.009,0.001,0.014,0.001c0.003,0,0.007-0.001,0.01-0.001h83.206
	c0.003,0,0.007,0.001,0.01,0.001c0.005,0,0.009-0.001,0.014-0.001h121.501c6.71,0,12.982-2.991,17.208-8.205
	C511.276,432.595,512.898,425.868,511.515,419.336z M138.179,302.926c-0.025-0.016-0.05-0.033-0.076-0.049
	c-2.535-1.662-4.969-3.498-7.282-5.504c-3.749-3.252-8.467-4.993-13.327-4.993c-1.162,0-2.333,0.1-3.5,0.302
	c-2.964,0.514-5.989,0.774-8.993,0.774c-29.106,0-52.786-23.68-52.786-52.786c0-21.269,12.668-40.36,32.273-48.637
	c6.803-2.872,11.499-8.933,12.561-16.213c3.749-25.706,26.195-45.092,52.212-45.092c6.466,0,12.778,1.154,18.76,3.429
	c4.767,1.814,10.018,1.814,14.784,0.001c5.982-2.275,12.294-3.429,18.76-3.429c26.018,0,48.464,19.385,52.213,45.092
	c1.062,7.28,5.758,13.341,12.561,16.213c19.605,8.277,32.273,27.368,32.273,48.637c0,29.106-23.68,52.786-52.786,52.786
	c-3.004,0-6.029-0.26-8.992-0.774c-6.048-1.049-12.181,0.661-16.827,4.691c-12.374,10.731-28.21,16.641-44.594,16.641
	C162.125,314.014,149.194,310.123,138.179,302.926z M147.494,430.998l7.138-104.645c6.742,1.743,13.718,2.661,20.783,2.661
	s14.042-0.918,20.784-2.661l7.138,104.645H147.494z M278.102,430.998h-59.731l-7.499-109.939
	c6.805-3.212,13.195-7.349,18.965-12.353c1.212-1.051,2.873-1.512,4.436-1.244c3.807,0.66,7.694,0.995,11.555,0.995
	c12.793,0,24.768-3.565,34.989-9.75c1.999,1.106,4.033,2.137,6.098,3.092L278.102,430.998z M293.137,430.998l8.447-123.832
	c8.147,2.237,16.596,3.397,25.145,3.397c8.56,0,17.013-1.157,25.145-3.389l8.446,123.824H293.137z M495.411,428.347
	c-1.365,1.685-3.39,2.65-5.555,2.65H375.355l-8.813-129.203c2.577-1.19,5.102-2.495,7.569-3.915
	c4.527,3.479,8.885,7.161,12.993,10.996c5.728,5.348,13.994,7.245,21.573,4.948c15.368-4.657,31.96-0.504,43.298,10.833
	c9.574,9.574,14.074,22.782,12.348,36.237c-0.92,7.174,1.897,14.378,7.535,19.269c12.665,10.985,21.538,25.999,24.983,42.279
	C497.446,425.299,496.204,427.368,495.411,428.347z M298.89,165.52v7.212c0,4.142,3.358,7.5,7.5,7.5s7.5-3.358,7.5-7.5v-7.212
	c0-4.142-3.358-7.5-7.5-7.5S298.89,161.378,298.89,165.52z M355.636,168.124c-1.465,1.682-3.579,2.646-5.8,2.646
	c-2.221,0-4.335-0.964-5.8-2.646c-2.722-3.123-7.459-3.447-10.582-0.727c-3.123,2.722-3.448,7.459-0.727,10.582
	c4.315,4.951,10.551,7.79,17.109,7.79s12.793-2.839,17.108-7.79c2.721-3.123,2.396-7.86-0.727-10.582
	C363.095,164.676,358.358,165.001,355.636,168.124z M385.783,165.52v7.212c0,4.142,3.358,7.5,7.5,7.5s7.5-3.358,7.5-7.5v-7.212
	c0-4.142-3.358-7.5-7.5-7.5S385.783,161.378,385.783,165.52z"/>
<g>
</g>
<g>
</g>
<g>
</g>
<g>
</g>
<g>
</g>
<g>
</g>
<g>
</g>
<g>
</g>
<g>
</g>
<g>
</g>
<g>
</g>
<g>
</g>
<g>
</g>
<g>
</g>
<g>
</g>
</svg>
