<?xml version="1.0" encoding="iso-8859-1"?>
<!-- Generator: Adobe Illustrator 19.0.0, SVG Export Plug-In . SVG Version: 6.00 Build 0)  -->
<svg version="1.1" id="Capa_1" xmlns="http://www.w3.org/2000/svg" xmlns:xlink="http://www.w3.org/1999/xlink" x="0px" y="0px"
	 viewBox="0 0 511.999 511.999" style="enable-background:new 0 0 511.999 511.999;" xml:space="preserve">
<path style="fill:#489A6D;" d="M483.438,378.073c-3.747-3.25-5.793-8.11-5.162-13.03c1.996-15.555-2.974-31.831-14.921-43.777
	c-14.159-14.159-34.396-18.516-52.308-13.092c-5.167,1.565-10.766,0.335-14.712-3.35c-34.017-31.763-79.681-51.209-129.893-51.209
	c-70.908,0-132.761,38.764-165.527,96.256c-2.54,4.458-7.364,7.067-12.492,6.897c-0.903-0.03-1.809-0.046-2.72-0.046
	c-41.929,0-76.953,29.565-85.362,68.985c-2.007,9.41,5.099,18.297,14.72,18.297h481.854c9.556,0,16.733-8.792,14.754-18.141
	C507.667,406.945,497.527,390.293,483.438,378.073z"/>
<polygon style="fill:#C27C59;" points="360.056,272.679 297.675,272.679 285.989,444.005 371.742,444.005 "/>
<path style="opacity:0.1;enable-background:new    ;" d="M360.056,272.679h-62.381l-3.69,54.097
	c10.73,4.511,22.509,7.019,34.88,7.019s24.15-2.508,34.88-7.019L360.056,272.679z"/>
<g style="opacity:0.1;">
	<path d="M340.384,364.738c-4.007,0-7.332-3.168-7.489-7.208l-1.092-27.98c-0.162-4.139,3.063-7.626,7.202-7.787
		c4.13-0.157,7.625,3.062,7.787,7.202l1.092,27.98c0.162,4.139-3.063,7.626-7.202,7.787
		C340.582,364.736,340.483,364.738,340.384,364.738z"/>
	<path d="M315.795,422.549c-0.088,0-0.176-0.001-0.265-0.004c-4.14-0.144-7.379-3.616-7.236-7.755l1.032-29.811
		c0.143-4.139,3.597-7.369,7.755-7.236c4.14,0.143,7.379,3.616,7.236,7.755l-1.032,29.811
		C323.145,419.36,319.817,422.549,315.795,422.549z"/>
</g>
<path style="fill:#54B88B;" d="M440.789,141.814c-5.166-2.181-8.799-6.839-9.608-12.387c-5.067-34.747-34.971-61.434-71.124-61.434
	c-9,0-17.614,1.654-25.554,4.674c-3.638,1.383-7.635,1.383-11.273,0c-7.94-3.02-16.554-4.674-25.554-4.674
	c-36.153,0-66.057,26.687-71.124,61.434c-0.809,5.549-4.442,10.206-9.608,12.387c-25.827,10.904-43.957,36.452-43.957,66.248
	c0,39.71,32.191,71.901,71.901,71.901c4.179,0,8.272-0.364,12.253-1.055c4.528-0.785,9.208,0.528,12.68,3.539
	c15.822,13.722,36.459,22.035,59.046,22.035c22.587,0,43.225-8.313,59.046-22.035c3.472-3.011,8.151-4.324,12.68-3.539
	c3.981,0.69,8.074,1.055,12.253,1.055c39.71,0,71.901-32.191,71.901-71.901C484.746,178.266,466.615,152.718,440.789,141.814z"/>
<g>
	<path style="fill:#414B58;" d="M307.914,177.718c-4.142,0-7.5-3.358-7.5-7.5v-7.429c0-4.142,3.358-7.5,7.5-7.5s7.5,3.358,7.5,7.5
		v7.429C315.414,174.36,312.056,177.718,307.914,177.718z"/>
	<path style="fill:#414B58;" d="M397.429,177.718c-4.142,0-7.5-3.358-7.5-7.5v-7.429c0-4.142,3.358-7.5,7.5-7.5s7.5,3.358,7.5,7.5
		v7.429C404.929,174.36,401.571,177.718,397.429,177.718z"/>
	<path style="fill:#414B58;" d="M352.671,183.424c-6.691,0-13.053-2.897-17.455-7.949c-2.721-3.123-2.396-7.86,0.727-10.582
		c3.122-2.721,7.86-2.396,10.582,0.727c1.553,1.781,3.792,2.803,6.146,2.803c2.353,0,4.593-1.022,6.146-2.803
		c2.721-3.123,7.459-3.448,10.582-0.727s3.448,7.459,0.727,10.582C365.724,180.527,359.362,183.424,352.671,183.424z"/>
</g>
<path style="opacity:0.1;enable-background:new    ;" d="M271.334,234.094c-30.84-12.754-30.374-50.441-16.067-76.773
	c4.034-7.425,5.512-15.966,3.828-24.246c-3.743-18.401-1.72-45.527,12.22-60.081c-23.548,9.291-41.014,30.647-44.768,56.46
	c-0.806,5.539-4.448,10.182-9.604,12.359c-25.827,10.904-43.957,36.452-43.957,66.248c0,39.71,32.191,71.901,71.901,71.901
	c4.179,0,8.272-0.364,12.253-1.055c4.528-0.785,9.208,0.528,12.68,3.539c15.822,13.722,36.459,22.035,59.046,22.035
	c12.139,0,23.705-2.42,34.272-6.771c-37.245,2.025-63.287-24.937-72.983-45.545C286.315,244.006,279.668,237.54,271.334,234.094z"/>
<polygon style="fill:#C27C59;" points="199.927,296.021 146.045,296.021 135.951,444.005 210.021,444.005 "/>
<path style="opacity:0.1;enable-background:new    ;" d="M199.927,296.021h-53.882l-3.187,46.727
	c9.268,3.896,19.442,6.062,30.128,6.062s20.86-2.166,30.128-6.062L199.927,296.021z"/>
<g style="opacity:0.1;">
	<path d="M160.192,390.695c-0.124,0-0.25-0.003-0.376-0.009c-4.137-0.204-7.326-3.723-7.122-7.86l1-20.285
		c0.204-4.138,3.735-7.323,7.86-7.122c4.137,0.204,7.326,3.723,7.122,7.86l-1,20.285
		C167.479,387.576,164.165,390.695,160.192,390.695z"/>
	<path d="M187.113,430.073c-3.924,0-7.224-3.051-7.477-7.022l-1.334-20.882c-0.264-4.134,2.873-7.699,7.007-7.963
		c4.132-0.257,7.698,2.873,7.963,7.007l1.334,20.882c0.264,4.134-2.873,7.699-7.007,7.963
		C187.436,430.067,187.273,430.073,187.113,430.073z"/>
</g>
<path style="fill:#B5E489;" d="M269.66,182.985c-4.462-1.884-7.6-5.907-8.299-10.7c-4.377-30.013-30.207-53.064-61.434-53.064
	c-7.774,0-15.214,1.429-22.072,4.037c-3.142,1.195-6.595,1.195-9.737,0c-6.858-2.608-14.299-4.037-22.072-4.037
	c-31.227,0-57.057,23.051-61.434,53.064c-0.699,4.793-3.837,8.816-8.299,10.7c-22.308,9.418-37.969,31.486-37.969,57.223
	c0,34.3,27.805,62.105,62.105,62.105c3.61,0,7.145-0.315,10.584-0.911c3.911-0.678,7.953,0.456,10.952,3.057
	c13.666,11.852,31.492,19.033,51.002,19.033s37.336-7.181,51.002-19.033c2.999-2.601,7.041-3.735,10.952-3.057
	c3.439,0.596,6.974,0.911,10.584,0.911c34.3,0,62.105-27.805,62.105-62.105C307.629,214.47,291.968,192.403,269.66,182.985z"/>
<g>
	<path style="fill:#414B58;" d="M128.228,214.302c-4.142,0-7.5-3.358-7.5-7.5v-7.43c0-4.142,3.358-7.5,7.5-7.5s7.5,3.358,7.5,7.5
		v7.43C135.728,210.944,132.371,214.302,128.228,214.302z"/>
	<path style="fill:#414B58;" d="M217.744,214.302c-4.142,0-7.5-3.358-7.5-7.5v-7.43c0-4.142,3.358-7.5,7.5-7.5s7.5,3.358,7.5,7.5
		v7.43C225.244,210.944,221.886,214.302,217.744,214.302z"/>
	<path style="fill:#414B58;" d="M172.986,220.007c-6.69,0-13.052-2.897-17.454-7.948c-2.722-3.122-2.396-7.86,0.726-10.581
		c3.122-2.722,7.86-2.397,10.582,0.726c1.553,1.782,3.793,2.803,6.146,2.803c2.354,0,4.594-1.021,6.146-2.803
		c2.721-3.123,7.458-3.448,10.582-0.726c3.122,2.721,3.448,7.459,0.726,10.581C186.038,217.11,179.676,220.007,172.986,220.007z"/>
</g>
<path style="opacity:0.1;enable-background:new    ;" d="M123.292,262.692c-26.639-11.017-26.236-43.569-13.877-66.313
	c3.484-6.413,4.761-13.791,3.306-20.943c-3.233-15.894-1.485-39.324,10.555-51.895c-20.34,8.025-35.426,26.472-38.669,48.768
	c-0.696,4.784-3.842,8.795-8.296,10.675c-22.308,9.418-37.969,31.486-37.969,57.223c0,34.3,27.805,62.105,62.105,62.105
	c3.61,0,7.145-0.315,10.584-0.911c3.911-0.678,7.953,0.456,10.952,3.057c13.666,11.852,31.492,19.033,51.002,19.033
	c10.485,0,20.475-2.09,29.603-5.849c-32.17,1.749-54.665-21.539-63.04-39.34C136.233,271.254,130.491,265.669,123.292,262.692z"/>
<g style="opacity:0.1;">
	<path d="M430.729,408.868c-1.919,0-3.839-0.732-5.303-2.197c-2.929-2.929-2.929-7.678,0-10.607l8.184-8.184
		c2.929-2.929,7.678-2.929,10.606,0c2.929,2.929,2.929,7.678,0,10.607l-8.184,8.184
		C434.568,408.136,432.649,408.868,430.729,408.868z"/>
	<path d="M242.86,381.605c-1.919,0-3.839-0.733-5.303-2.197c-2.929-2.929-2.929-7.678,0-10.607l8.184-8.184
		c2.929-2.929,7.678-2.929,10.606,0c2.929,2.929,2.929,7.678,0,10.606l-8.184,8.184C246.699,380.872,244.779,381.605,242.86,381.605
		z"/>
	<path d="M404.521,353.518c-1.919,0-3.839-0.733-5.303-2.197l-8.184-8.184c-2.929-2.929-2.929-7.678,0-10.607s7.678-2.929,10.607,0
		l8.184,8.184c2.929,2.929,2.929,7.678,0,10.606C408.36,352.785,406.44,353.518,404.521,353.518z"/>
	<path d="M95.02,420.697c-1.919,0-3.839-0.732-5.303-2.197l-8.184-8.184c-2.929-2.929-2.929-7.678,0-10.607s7.678-2.929,10.606,0
		l8.184,8.184c2.929,2.929,2.929,7.678,0,10.607C98.859,419.965,96.939,420.697,95.02,420.697z"/>
</g>
<g>
</g>
<g>
</g>
<g>
</g>
<g>
</g>
<g>
</g>
<g>
</g>
<g>
</g>
<g>
</g>
<g>
</g>
<g>
</g>
<g>
</g>
<g>
</g>
<g>
</g>
<g>
</g>
<g>
</g>
</svg>
