<?xml version="1.0" encoding="iso-8859-1"?>
<!-- Generator: Adobe Illustrator 19.0.0, SVG Export Plug-In . SVG Version: 6.00 Build 0)  -->
<svg version="1.1" id="Layer_1" xmlns="http://www.w3.org/2000/svg" xmlns:xlink="http://www.w3.org/1999/xlink" x="0px" y="0px"
	 viewBox="0 0 512 512" style="enable-background:new 0 0 512 512;" xml:space="preserve">
<path style="fill:#314E55;" d="M459.891,498.682L267.659,95.909l40.987-32.877c4.009-3.218,4.655-9.077,1.436-13.086
	s-9.064-4.655-13.091-1.441l-31.682,25.414V9.309C265.309,4.168,261.145,0,256,0s-9.309,4.168-9.309,9.309v64.602l-31.282-25.407
	c-4.009-3.25-9.864-2.618-13.1,1.359c-3.236,3.991-2.636,9.855,1.364,13.096l40.643,33.004L52.109,498.682
	c-1.382,2.882-1.182,6.273,0.527,8.977c1.7,2.7,4.672,4.341,7.872,4.341h128.846c3.591,0,6.855-2.064,8.4-5.3L256,384.668
	L314.245,506.7c1.546,3.236,4.809,5.3,8.4,5.3h128.845c3.2,0,6.173-1.641,7.873-4.341
	C461.073,504.955,461.273,501.564,459.891,498.682z"/>
<path style="fill:#73C9C9;" d="M328.518,493.382L264.4,359.045c-1.546-3.236-4.809-5.3-8.4-5.3c-3.591,0-6.855,2.064-8.4,5.3
	l-64.118,134.336H75.264L256,114.705l180.736,378.677H328.518z"/>
<path style="fill:#314E55;" d="M256,455c-5.145,0-9.309,4.168-9.309,9.309v38.382c0,5.141,4.164,9.309,9.309,9.309
	s9.309-4.168,9.309-9.309v-38.382C265.309,459.168,261.146,455,256,455z"/>
<g>
</g>
<g>
</g>
<g>
</g>
<g>
</g>
<g>
</g>
<g>
</g>
<g>
</g>
<g>
</g>
<g>
</g>
<g>
</g>
<g>
</g>
<g>
</g>
<g>
</g>
<g>
</g>
<g>
</g>
</svg>
