<?xml version="1.0" encoding="iso-8859-1"?>
<!-- Generator: Adobe Illustrator 19.0.0, SVG Export Plug-In . SVG Version: 6.00 Build 0)  -->
<svg version="1.1" id="Capa_1" xmlns="http://www.w3.org/2000/svg" xmlns:xlink="http://www.w3.org/1999/xlink" x="0px" y="0px"
	 viewBox="0 0 512.487 512.487" style="enable-background:new 0 0 512.487 512.487;" xml:space="preserve">
<polygon style="fill:#009688;" points="48.243,496.487 256.243,96.487 464.243,496.487 "/>
<path style="fill:#4DB6AC;" d="M256.243,320.487c-35.346,0-64,28.654-64,64v112c0,8.837,7.163,16,16,16h96c8.837,0,16-7.163,16-16
	v-112C320.243,349.141,291.59,320.487,256.243,320.487z"/>
<path d="M496.243,512.487h-480c-8.837,0-16-7.163-16-16s7.163-16,16-16h480c8.837,0,16,7.163,16,16S505.08,512.487,496.243,512.487z
	"/>
<path d="M48.243,512.487c-8.837-0.006-15.995-7.174-15.989-16.011c0.002-2.619,0.646-5.198,1.877-7.509l256-480
	c4.421-7.651,14.207-10.27,21.858-5.85c7.283,4.208,10.064,13.336,6.366,20.89l-256,480
	C59.578,509.223,54.152,512.483,48.243,512.487z"/>
<path d="M464.243,512.487c-5.909-0.004-11.335-3.264-14.112-8.48l-256-480c-4.421-7.651-1.802-17.438,5.85-21.858
	c7.651-4.421,17.438-1.802,21.858,5.85c0.183,0.317,0.355,0.64,0.516,0.968l256,480c4.153,7.8,1.197,17.489-6.603,21.643
	C469.441,511.841,466.863,512.485,464.243,512.487z"/>
<path d="M304.243,512.487h-96c-8.837,0-16-7.163-16-16v-112c0-35.346,28.654-64,64-64s64,28.654,64,64v112
	C320.243,505.323,313.08,512.487,304.243,512.487z M224.243,480.487h64v-96c0-17.673-14.327-32-32-32s-32,14.327-32,32V480.487z"/>
<g>
</g>
<g>
</g>
<g>
</g>
<g>
</g>
<g>
</g>
<g>
</g>
<g>
</g>
<g>
</g>
<g>
</g>
<g>
</g>
<g>
</g>
<g>
</g>
<g>
</g>
<g>
</g>
<g>
</g>
</svg>
