<?xml version="1.0" encoding="iso-8859-1"?>
<!-- Generator: Adobe Illustrator 19.0.0, SVG Export Plug-In . SVG Version: 6.00 Build 0)  -->
<svg version="1.1" id="Layer_1" xmlns="http://www.w3.org/2000/svg" xmlns:xlink="http://www.w3.org/1999/xlink" x="0px" y="0px"
	 viewBox="0 0 511.999 511.999" style="enable-background:new 0 0 511.999 511.999;" xml:space="preserve">
<path style="fill:#01544B;" d="M488.444,438.124c0,0-228.199-370.725-232.444-384.064C251.755,67.4,23.556,438.124,23.556,438.124
	H488.444z"/>
<g>
	<path style="fill:#008777;" d="M256,54.059c-4.245,13.34-232.444,384.064-232.444,384.064h140.778
		c67.763-108.597,86.98-231.51,91.666-306.152V54.059z"/>
	<path style="fill:#008777;" d="M256,54.059c4.245,13.34,232.444,384.064,232.444,384.064H347.666
		C279.903,329.526,260.686,206.613,256,131.97V54.059z"/>
</g>
<path style="fill:#007564;" d="M488.433,438.105C487.478,436.553,260.236,67.371,256,54.059v56.072
	c62.811,105.113,199.163,326.431,200.111,327.975L488.433,438.105L488.433,438.105z"/>
<path style="fill:#01CDB4;" d="M256.02,54.114c-0.005-0.016-0.015-0.04-0.02-0.055c-0.005,0.015-0.015,0.039-0.02,0.055
	c-11.366,126.991-128.89,316.567-128.89,316.567c28.896,18.622,37.204,67.424,37.204,67.424c0.055-0.061,0.109-0.124,0.164-0.185
	C232.119,329.381,251.317,206.567,256,131.971c4.683,74.596,23.881,197.41,91.542,305.949c0.055,0.062,0.109,0.124,0.164,0.185
	c0,0,8.308-48.802,37.204-67.424C384.91,370.681,267.386,181.105,256.02,54.114z"/>
<path style="fill:#02AD96;" d="M368.117,386.522c4.612-6.014,10.159-11.565,16.793-15.84c0,0-117.523-189.577-128.889-316.567
	c-0.005-0.016-0.016-0.04-0.02-0.055c-0.036,49.459,39.398,253.075,96.674,316.625C358.023,376.618,363.173,381.871,368.117,386.522
	z"/>
<path style="fill:#01544B;" d="M498.831,457.941H13.169C5.896,457.941,0,452.044,0,444.771l0,0c0-7.273,5.896-13.169,13.169-13.169
	H498.83c7.273,0,13.169,5.896,13.169,13.169l0,0C512,452.044,506.104,457.941,498.831,457.941z"/>
<g>
</g>
<g>
</g>
<g>
</g>
<g>
</g>
<g>
</g>
<g>
</g>
<g>
</g>
<g>
</g>
<g>
</g>
<g>
</g>
<g>
</g>
<g>
</g>
<g>
</g>
<g>
</g>
<g>
</g>
</svg>
