<?xml version="1.0" encoding="iso-8859-1"?>
<!-- Generator: Adobe Illustrator 19.0.0, SVG Export Plug-In . SVG Version: 6.00 Build 0)  -->
<svg version="1.1" id="Capa_1" xmlns="http://www.w3.org/2000/svg" xmlns:xlink="http://www.w3.org/1999/xlink" x="0px" y="0px"
	 viewBox="0 0 512.001 512.001" style="enable-background:new 0 0 512.001 512.001;" xml:space="preserve">
<path style="fill:#A67875;" d="M500.21,341.142h-16.277c-2.51,0-4.483,2.145-4.275,4.646l2.493,29.973
	c0.152,1.821,1.674,3.222,3.502,3.222h12.838c1.828,0,3.35-1.401,3.502-3.222l2.493-29.973
	C504.693,343.287,502.719,341.142,500.21,341.142z"/>
<path style="opacity:0.1;enable-background:new    ;" d="M500.21,341.142h-6.919c2.51,0,4.483,2.145,4.275,4.646l-2.493,29.973
	c-0.152,1.822-1.674,3.223-3.502,3.223h6.919c1.828,0,3.35-1.401,3.501-3.223l2.493-29.973
	C504.693,343.287,502.72,341.142,500.21,341.142z"/>
<g>
	<path style="fill:#69BFE2;" d="M256.674,378.984H17.725l107.523-197.467c4.575-8.402,13.376-13.631,22.942-13.631h223.43
		L256.674,378.984z"/>
	<path style="fill:#69BFE2;" d="M492.071,378.984H251.168L363.48,172.721c3.511-6.448,12.768-6.448,16.279,0L492.071,378.984z"/>
</g>
<path style="opacity:0.15;enable-background:new    ;" d="M363.48,172.721L251.168,378.984H371.62V167.886
	C368.428,167.886,365.236,169.497,363.48,172.721z"/>
<polygon style="fill:#445258;" points="371.62,315.501 371.62,378.984 428.661,378.984 "/>
<path style="opacity:0.2;fill:#FFFFFF;enable-background:new    ;" d="M419.885,315.501H371.62l57.042,63.483v-54.707
	C428.661,319.43,424.732,315.501,419.885,315.501z"/>
<path style="fill:#A67875;" d="M28.068,341.142H11.791c-2.51,0-4.483,2.145-4.275,4.646l2.493,29.973
	c0.151,1.821,1.674,3.222,3.502,3.222h12.838c1.828,0,3.35-1.401,3.502-3.222l2.493-29.973
	C32.552,343.287,30.578,341.142,28.068,341.142z"/>
<path style="opacity:0.1;enable-background:new    ;" d="M28.068,341.142h-6.919c2.51,0,4.483,2.145,4.275,4.646l-2.493,29.973
	c-0.152,1.822-1.674,3.223-3.502,3.223h6.92c1.827,0,3.35-1.401,3.501-3.223l2.493-29.973
	C32.552,343.287,30.578,341.142,28.068,341.142z"/>
<path style="fill:#A67875;" d="M259.307,341.142H243.03c-2.51,0-4.483,2.145-4.275,4.646l2.493,29.973
	c0.152,1.821,1.674,3.222,3.502,3.222h12.838c1.828,0,3.35-1.401,3.502-3.222l2.493-29.973
	C263.79,343.287,261.816,341.142,259.307,341.142z"/>
<path style="opacity:0.1;enable-background:new    ;" d="M259.307,341.142h-6.919c2.51,0,4.483,2.145,4.275,4.646l-2.493,29.973
	c-0.152,1.822-1.674,3.222-3.502,3.222h6.919c1.828,0,3.35-1.401,3.502-3.222l2.493-29.973
	C263.79,343.287,261.816,341.142,259.307,341.142z"/>
<path style="fill:#97D68F;" d="M220.252,322.763c-18.37,6.686-38.439,1.565-49.97-2.694c-5.48-2.024-7.825-8.468-4.928-13.541
	c6.095-10.675,18.177-27.497,36.547-34.183c18.37-6.686,38.439-1.565,49.97,2.694c5.48,2.024,7.825,8.468,4.928,13.541
	C250.704,299.254,238.622,316.077,220.252,322.763z"/>
<path style="opacity:0.1;enable-background:new    ;" d="M220.252,322.763c-18.37,6.686-38.439,1.565-49.97-2.694
	c-5.48-2.024-7.825-8.468-4.928-13.541c6.095-10.675,18.177-27.497,36.547-34.183c18.37-6.686,38.439-1.565,49.97,2.694
	c5.48,2.024,7.825,8.468,4.928,13.541C250.704,299.254,238.622,316.077,220.252,322.763z"/>
<path style="opacity:0.1;enable-background:new    ;" d="M197.136,310.13c-3.064,0-5.94-1.892-7.049-4.936
	c-1.417-3.893,0.591-8.196,4.482-9.613l27.883-10.148c3.893-1.415,8.196,0.591,9.613,4.482c1.417,3.893-0.591,8.196-4.482,9.613
	L199.7,309.676C198.854,309.984,197.988,310.13,197.136,310.13z"/>
<path style="fill:#97D68F;" d="M165.276,273.241c17.717,8.262,28.287,26.073,33.429,37.239c2.444,5.306-0.454,11.521-6.09,13.06
	c-11.858,3.238-32.297,6.59-50.014-1.672s-28.287-26.073-33.429-37.239c-2.444-5.306,0.454-11.521,6.09-13.06
	C127.12,268.331,147.559,264.979,165.276,273.241z"/>
<path style="opacity:0.1;enable-background:new    ;" d="M167.38,311.326c-1.062,0-2.14-0.227-3.165-0.705l-26.893-12.541
	c-3.754-1.75-5.378-6.213-3.627-9.967s6.215-5.378,9.967-3.627l26.893,12.541c3.754,1.75,5.378,6.213,3.627,9.967
	C172.909,309.723,170.204,311.326,167.38,311.326z"/>
<path d="M271.472,225.814c4.143,0,7.5-3.357,7.5-7.5v-7.865c0-4.143-3.357-7.5-7.5-7.5s-7.5,3.357-7.5,7.5v7.865
	C263.972,222.456,267.329,225.814,271.472,225.814z M224.092,231.853c6.954,0,13.568-3.012,18.145-8.263
	c2.722-3.122,2.397-7.859-0.726-10.581c-3.121-2.724-7.86-2.397-10.581,0.726c-1.728,1.981-4.22,3.118-6.838,3.118
	s-5.11-1.137-6.838-3.118c-2.721-3.122-7.459-3.449-10.581-0.726c-3.123,2.722-3.447,7.459-0.726,10.581
	C210.524,228.841,217.138,231.853,224.092,231.853z M508.886,337.449c-2.226-2.419-5.389-3.807-8.676-3.807h-16.278
	c-2.457,0-4.844,0.776-6.823,2.178l-90.763-166.687c-1.67-3.066-4.214-5.47-7.227-6.976v-29.141c0-4.143-3.357-7.5-7.5-7.5
	s-7.5,3.357-7.5,7.5v27.368H155.752v-27.368c0-4.143-3.357-7.5-7.5-7.5s-7.5,3.357-7.5,7.5v28.215
	c-9.307,2.11-17.411,8.104-22.091,16.697L57.925,289.472c-1.98,3.638-0.638,8.193,3,10.174c1.14,0.62,2.368,0.915,3.58,0.914
	c2.658,0,5.233-1.416,6.594-3.914l60.736-111.543c3.264-5.994,9.531-9.718,16.355-9.718h0.042c0.006,0,0.013,0.001,0.019,0.001
	c0.007,0,0.013-0.001,0.019-0.001h205.218L266.13,335.821c-1.979-1.402-4.366-2.179-6.823-2.179H243.03
	c-3.287,0-6.449,1.388-8.675,3.807c-2.227,2.419-3.348,5.686-3.075,8.962l2.086,25.073H37.732l1.332-16.006l15.085-27.702
	c1.98-3.638,0.638-8.192-3-10.174c-3.641-1.982-8.193-0.638-10.174,3l-7.756,14.244c-1.592-0.774-3.349-1.204-5.15-1.204H11.79
	c-3.287,0-6.449,1.388-8.675,3.807c-2.227,2.419-3.348,5.686-3.075,8.962l2.494,29.972c0.471,5.664,5.292,10.102,10.976,10.102
	h244.077h0.001l0,0H498.49c5.684,0,10.505-4.438,10.976-10.101l2.494-29.973C512.233,343.134,511.112,339.867,508.886,337.449z
	 M24.258,352.521c-0.002,0.019-0.003,0.037-0.005,0.055l-1.573,18.907h-5.501l-1.9-22.842h9.302L24.258,352.521z M255.098,357.302
	c-0.002,0.017-0.003,0.034-0.004,0.051l-1.176,14.131h-5.501l-1.899-22.842h9.301L255.098,357.302z M379.119,371.484V335.07
	l32.72,36.414H379.119z M421.161,359.415l-32.72-36.414h31.443c0.704,0,1.276,0.572,1.276,1.275v35.139H421.161z M436.161,371.484
	v-47.207c0-8.975-7.302-16.275-16.276-16.275h-40.766v-59.973c0-4.143-3.357-7.5-7.5-7.5s-7.5,3.357-7.5,7.5v123.455H268.97
	l0.934-11.227l94.215-173.027v27.688c0,4.143,3.357,7.5,7.5,7.5s7.5-3.357,7.5-7.5V187.23l100.328,184.253h-43.286L436.161,371.484
	L436.161,371.484z M495.048,368.766l-7.026-12.904l-0.601-7.219h9.302L495.048,368.766z M184.213,218.314v-7.865
	c0-4.143-3.357-7.5-7.5-7.5s-7.5,3.357-7.5,7.5v7.865c0,4.143,3.357,7.5,7.5,7.5S184.213,222.456,184.213,218.314z M113.286,264.333
	c-4.816,1.315-8.788,4.662-10.896,9.183c-2.108,4.521-2.12,9.714-0.031,14.251c11.447,24.853,26.478,35.958,37.072,40.897
	c6.572,3.065,16.059,5.912,28.617,5.912c5.903,0,12.492-0.638,19.768-2.17c4.498,0.71,8.867,1.085,13.082,1.085
	c7.847,0,15.182-1.229,21.918-3.681c10.984-3.999,26.927-13.753,40.495-37.513c2.476-4.337,2.917-9.513,1.21-14.199
	c-1.706-4.686-5.371-8.366-10.054-10.095c-25.665-9.48-44.148-6.705-55.132-2.707c-6.048,2.201-11.869,5.498-17.374,9.831
	c-4.851-4.054-9.503-6.813-13.517-8.685C157.851,261.502,139.681,257.127,113.286,264.333z M204.467,279.393
	c16.456-5.991,35.135-0.891,44.806,2.683c0.702,0.259,1.016,0.772,1.155,1.155c0.141,0.385,0.23,0.979-0.142,1.63
	c-5.112,8.952-16.146,24.865-32.6,30.854c-3.438,1.252-7.126,2.074-11.039,2.479c0.824-3.61,0.451-7.419-1.13-10.851
	c-4.009-8.708-8.46-15.723-13.006-21.382C196.374,283.094,200.373,280.883,204.467,279.393z M191.894,313.618
	c0.313,0.679,0.172,1.263-0.001,1.634s-0.53,0.854-1.253,1.052c-9.945,2.716-29.001,6.166-44.868-1.233
	c-15.869-7.4-25.475-24.215-29.787-33.578c-0.313-0.681-0.173-1.266,0-1.637s0.531-0.854,1.253-1.052
	c5.487-1.498,13.746-3.22,22.715-3.22c7.286,0,15.042,1.137,22.154,4.453C177.978,287.439,187.581,304.253,191.894,313.618z"/>
<path style="fill:#E4E4E5;" d="M360.341,334.28c-1.919,0-3.839-0.732-5.304-2.196c-2.929-2.93-2.929-7.678,0-10.607l11.278-11.278
	c2.93-2.928,7.678-2.928,10.607,0c2.929,2.93,2.929,7.678,0,10.607l-11.278,11.278C364.18,333.547,362.26,334.28,360.341,334.28z"/>
<g>
</g>
<g>
</g>
<g>
</g>
<g>
</g>
<g>
</g>
<g>
</g>
<g>
</g>
<g>
</g>
<g>
</g>
<g>
</g>
<g>
</g>
<g>
</g>
<g>
</g>
<g>
</g>
<g>
</g>
</svg>
