<?xml version="1.0" encoding="iso-8859-1"?>
<!-- Generator: Adobe Illustrator 19.0.0, SVG Export Plug-In . SVG Version: 6.00 Build 0)  -->
<svg version="1.1" id="Capa_1" xmlns="http://www.w3.org/2000/svg" xmlns:xlink="http://www.w3.org/1999/xlink" x="0px" y="0px"
	 viewBox="0 0 512 512" style="enable-background:new 0 0 512 512;" xml:space="preserve">
<path style="fill:#A67875;" d="M507.58,347.462h-16.769c-2.585,0-4.619,2.21-4.404,4.786l2.569,30.878
	c0.156,1.876,1.724,3.32,3.607,3.32h13.226c1.883,0,3.451-1.443,3.607-3.32l2.569-30.878
	C512.199,349.671,510.166,347.462,507.58,347.462z"/>
<path style="opacity:0.1;enable-background:new    ;" d="M507.58,347.462h-7.128c2.585,0,4.619,2.21,4.404,4.786l-2.569,30.878
	c-0.156,1.876-1.725,3.32-3.607,3.32h7.128c1.883,0,3.451-1.443,3.607-3.32l2.569-30.878
	C512.199,349.671,510.166,347.462,507.58,347.462z"/>
<g>
	<path style="fill:#E5E5E5;" d="M375.108,183.137c-4.143,0-7.5-3.357-7.5-7.5v-42.582c0-4.143,3.357-7.5,7.5-7.5s7.5,3.357,7.5,7.5
		v42.582C382.608,179.779,379.251,183.137,375.108,183.137z"/>
	<path style="fill:#E5E5E5;" d="M145,183.137c-4.143,0-7.5-3.357-7.5-7.5v-42.582c0-4.143,3.357-7.5,7.5-7.5s7.5,3.357,7.5,7.5
		v42.582C152.5,179.779,149.143,183.137,145,183.137z"/>
</g>
<g>
	<path style="fill:#69BFE2;" d="M256.694,386.445H10.534l110.768-203.427c4.713-8.655,13.78-14.042,23.635-14.042h230.172
		L256.694,386.445z"/>
	<path style="fill:#69BFE2;" d="M499.196,386.445H251.022l115.702-212.487c3.617-6.642,13.154-6.642,16.77,0L499.196,386.445z"/>
</g>
<path style="opacity:0.15;enable-background:new    ;" d="M366.724,173.958L251.022,386.445h124.087V168.976
	C371.821,168.976,368.532,170.636,366.724,173.958z"/>
<polygon style="fill:#445258;" points="375.109,321.046 375.109,386.445 433.872,386.445 "/>
<path style="opacity:0.2;fill:#FFFFFF;enable-background:new    ;" d="M424.831,321.046h-49.722l58.763,65.399v-56.358
	C433.872,325.094,429.824,321.046,424.831,321.046z"/>
<path style="fill:#E5E5E5;" d="M363.49,340.165c-1.919,0-3.839-0.732-5.303-2.196c-2.93-2.929-2.93-7.678-0.001-10.607
	l11.618-11.619c2.93-2.93,7.679-2.929,10.606-0.001c2.93,2.929,2.93,7.678,0.001,10.606l-11.618,11.619
	C367.329,339.433,365.409,340.165,363.49,340.165z"/>
<path style="fill:#A67875;" d="M21.189,347.462H4.42c-2.585,0-4.619,2.21-4.404,4.786l2.569,30.878
	c0.156,1.876,1.725,3.32,3.607,3.32h13.226c1.883,0,3.451-1.443,3.607-3.32l2.569-30.878
	C25.808,349.671,23.774,347.462,21.189,347.462z"/>
<path style="opacity:0.1;enable-background:new    ;" d="M21.189,347.462h-7.128c2.585,0,4.619,2.209,4.404,4.786l-2.569,30.878
	c-0.156,1.876-1.725,3.32-3.607,3.32h7.128c1.883,0,3.451-1.443,3.607-3.32l2.569-30.878
	C25.808,349.671,23.774,347.462,21.189,347.462z"/>
<path style="fill:#A67875;" d="M259.406,347.462h-16.769c-2.585,0-4.619,2.21-4.404,4.786l2.569,30.878
	c0.156,1.876,1.724,3.32,3.607,3.32h13.226c1.883,0,3.451-1.443,3.607-3.32l2.569-30.878
	C264.025,349.671,261.992,347.462,259.406,347.462z"/>
<path style="opacity:0.1;enable-background:new    ;" d="M259.406,347.462h-7.128c2.585,0,4.619,2.209,4.404,4.786l-2.569,30.878
	c-0.156,1.876-1.725,3.32-3.607,3.32h7.128c1.883,0,3.451-1.443,3.607-3.32l2.569-30.878
	C264.025,349.671,261.992,347.462,259.406,347.462z"/>
<path style="fill:#97D68F;" d="M219.173,328.528c-18.924,6.888-39.599,1.613-51.478-2.775c-5.645-2.085-8.061-8.723-5.077-13.949
	c6.279-10.997,18.726-28.327,37.65-35.215s39.599-1.613,51.478,2.775c5.645,2.085,8.061,8.723,5.077,13.949
	C250.544,304.309,238.097,321.64,219.173,328.528z"/>
<path style="opacity:0.1;enable-background:new    ;" d="M219.173,328.528c-18.924,6.888-39.599,1.613-51.478-2.775
	c-5.645-2.085-8.061-8.723-5.077-13.949c6.279-10.997,18.726-28.327,37.65-35.215s39.599-1.613,51.478,2.775
	c5.645,2.085,8.061,8.723,5.077,13.949C250.544,304.309,238.097,321.64,219.173,328.528z"/>
<path style="opacity:0.1;enable-background:new    ;" d="M195.358,315.287c-3.064,0-5.94-1.891-7.049-4.936
	c-1.417-3.893,0.591-8.196,4.482-9.613l28.726-10.455c3.896-1.417,8.196,0.591,9.613,4.482c1.417,3.893-0.591,8.196-4.483,9.613
	l-28.725,10.455C197.076,315.141,196.209,315.287,195.358,315.287z"/>
<path style="fill:#97D68F;" d="M162.538,277.511c18.252,8.511,29.141,26.86,34.438,38.363c2.517,5.466-0.468,11.868-6.274,13.454
	c-12.216,3.336-33.272,6.789-51.524-1.722s-29.141-26.86-34.438-38.363c-2.517-5.466,0.468-11.868,6.274-13.454
	C123.231,272.453,144.286,269,162.538,277.511z"/>
<path style="opacity:0.1;enable-background:new    ;" d="M164.706,316.519c-1.062,0-2.14-0.227-3.165-0.705l-27.705-12.919
	c-3.754-1.75-5.378-6.213-3.627-9.967c1.749-3.754,6.214-5.378,9.967-3.627l27.705,12.919c3.754,1.75,5.378,6.213,3.627,9.967
	C170.236,314.916,167.53,316.519,164.706,316.519z"/>
<g>
	<path style="fill:#445258;" d="M174.32,228.426c-4.143,0-7.5-3.357-7.5-7.5v-8.103c0-4.143,3.357-7.5,7.5-7.5s7.5,3.357,7.5,7.5
		v8.103C181.82,225.068,178.463,228.426,174.32,228.426z"/>
	<path style="fill:#445258;" d="M271.939,228.426c-4.143,0-7.5-3.357-7.5-7.5v-8.103c0-4.143,3.357-7.5,7.5-7.5s7.5,3.357,7.5,7.5
		v8.103C279.439,225.068,276.081,228.426,271.939,228.426z"/>
	<path style="fill:#445258;" d="M223.129,234.647c-7.099,0-13.85-3.074-18.522-8.435c-2.721-3.122-2.396-7.86,0.727-10.582
		c3.122-2.721,7.86-2.398,10.582,0.727c1.822,2.091,4.451,3.29,7.214,3.29s5.392-1.199,7.214-3.29
		c2.722-3.123,7.46-3.448,10.582-0.727c3.123,2.722,3.447,7.46,0.727,10.582C236.979,231.573,230.228,234.647,223.129,234.647z"/>
</g>
<g>
</g>
<g>
</g>
<g>
</g>
<g>
</g>
<g>
</g>
<g>
</g>
<g>
</g>
<g>
</g>
<g>
</g>
<g>
</g>
<g>
</g>
<g>
</g>
<g>
</g>
<g>
</g>
<g>
</g>
</svg>
