<?xml version="1.0" encoding="iso-8859-1"?>
<!-- Generator: Adobe Illustrator 19.0.0, SVG Export Plug-In . SVG Version: 6.00 Build 0)  -->
<svg version="1.1" id="Layer_1" xmlns="http://www.w3.org/2000/svg" xmlns:xlink="http://www.w3.org/1999/xlink" x="0px" y="0px"
	 viewBox="0 0 511.999 511.999" style="enable-background:new 0 0 511.999 511.999;" xml:space="preserve">
<g>
	<path style="fill:#F59F3F;" d="M32.007,440c-2.433,0-4.834-1.105-6.406-3.201l-24-32c-2.651-3.534-1.935-8.549,1.6-11.2
		c3.535-2.65,8.549-1.934,11.2,1.6l24,32c2.651,3.534,1.935,8.549-1.6,11.2C35.361,439.478,33.677,440,32.007,440z"/>
	<path style="fill:#F59F3F;" d="M479.994,440c-1.671,0-3.354-0.521-4.794-1.601c-3.535-2.651-4.251-7.666-1.601-11.2l24-32
		c2.652-3.536,7.666-4.25,11.2-1.6c3.535,2.651,4.251,7.666,1.601,11.2l-24,32C484.828,438.895,482.426,440,479.994,440z"/>
</g>
<g>
	<path style="fill:#F2821C;" d="M192,119.999c-2.047,0-4.095-0.781-5.657-2.343l-32-32c-3.125-3.124-3.125-8.189,0-11.313
		c3.124-3.124,8.189-3.124,11.313,0l32,32c3.125,3.124,3.125,8.189,0,11.313C196.095,119.218,194.048,119.999,192,119.999z"/>
	<path style="fill:#F2821C;" d="M192,119.999c-2.047,0-4.095-0.781-5.657-2.343c-3.125-3.124-3.125-8.189,0-11.313l32-32
		c3.124-3.124,8.189-3.124,11.313,0c3.125,3.124,3.125,8.189,0,11.313l-32,32C196.095,119.218,194.048,119.999,192,119.999z"/>
	<path style="fill:#F2821C;" d="M320,119.999c-2.048,0-4.095-0.781-5.657-2.343c-3.124-3.124-3.124-8.189,0-11.313l32-32
		c3.125-3.124,8.189-3.124,11.314,0c3.124,3.124,3.124,8.189,0,11.313l-32,32C324.095,119.218,322.048,119.999,320,119.999z"/>
	<path style="fill:#F2821C;" d="M320,119.999c-2.048,0-4.095-0.781-5.657-2.343l-32-32c-3.124-3.124-3.124-8.189,0-11.313
		c3.125-3.124,8.189-3.124,11.314,0l32,32c3.124,3.124,3.124,8.189,0,11.313C324.095,119.218,322.048,119.999,320,119.999z"/>
</g>
<path style="fill:#019F9F;" d="M359.156,428.421l-160-320c-1.355-2.71-4.125-4.422-7.155-4.422s-5.8,1.712-7.155,4.422l-160,320
	c-1.24,2.48-1.107,5.425,0.35,7.784c1.457,2.359,4.032,3.794,6.804,3.794h320c2.772,0,5.348-1.436,6.806-3.794
	C360.263,433.846,360.396,430.901,359.156,428.421z"/>
<g>
	<path style="fill:#38C7C2;" d="M184.845,108.421l-160,320c-2.616,5.232,1.322,11.578,7.155,11.578h72
		c3.081,0,5.888-1.769,7.217-4.548L192,263.999V104.004C189.023,104.005,186.222,105.666,184.845,108.421z"/>
	<path style="fill:#38C7C2;" d="M487.156,428.421l-160-320c-1.354-2.71-4.125-4.422-7.155-4.422H192
		c-2.772,0-5.348,1.436-6.805,3.794c-1.458,2.359-1.59,5.304-0.35,7.784l160,320c1.355,2.71,4.125,4.422,7.155,4.422h128
		c2.772,0,5.348-1.436,6.806-3.794C488.263,433.846,488.396,430.901,487.156,428.421z"/>
</g>
<path style="fill:#00B5B8;" d="M359.156,428.421l-160-320c-1.377-2.755-4.178-4.418-7.155-4.417v335.995h160
	C357.834,439.999,361.772,433.654,359.156,428.421z"/>
<g>
	<path style="fill:#68DEC8;" d="M367.136,268.421l-32-64c-1.355-2.71-4.125-4.422-7.155-4.422h-32
		c-5.833,0-9.772,6.345-7.155,11.578l32,64c1.355,2.71,4.125,4.422,7.155,4.422h32C365.814,279.999,369.753,273.654,367.136,268.421
		z"/>
	<path style="fill:#68DEC8;" d="M98.344,437.656c3.841,3.843,10.535,2.684,12.874-2.205L192,263.999L71.344,400.019
		c-2.809,3.166-2.665,7.973,0.328,10.966L98.344,437.656z"/>
</g>
<g>
</g>
<g>
</g>
<g>
</g>
<g>
</g>
<g>
</g>
<g>
</g>
<g>
</g>
<g>
</g>
<g>
</g>
<g>
</g>
<g>
</g>
<g>
</g>
<g>
</g>
<g>
</g>
<g>
</g>
</svg>
