<?xml version="1.0" encoding="iso-8859-1"?>
<!-- Generator: Adobe Illustrator 19.0.0, SVG Export Plug-In . SVG Version: 6.00 Build 0)  -->
<svg version="1.1" id="Layer_1" xmlns="http://www.w3.org/2000/svg" xmlns:xlink="http://www.w3.org/1999/xlink" x="0px" y="0px"
	 viewBox="0 0 512 512" style="enable-background:new 0 0 512 512;" xml:space="preserve">
<path style="fill:#95673F;" d="M41.739,395.13c0-9.223-7.479-16.696-16.696-16.696S8.348,385.908,8.348,395.13v100.174h33.391
	V395.13z"/>
<path style="fill:#875334;" d="M509.217,395.13c0-9.223-7.479-16.696-16.696-16.696c-9.217,0-16.696,7.473-16.696,16.696v100.174
	h33.391V395.13z"/>
<path style="fill:#57A4FF;" d="M506.212,485.843v-0.111L272.473,151.819c-3.339-4.675-8.57-7.123-13.69-7.123
	c-5.12,0-10.35,2.449-13.69,7.123L11.353,485.732v0.11C3.674,496.863,11.687,512,25.043,512h467.478
	C505.655,512,514.002,497.085,506.212,485.843z"/>
<g>
	<path style="fill:#2488FF;" d="M492.522,512H258.783V144.696c5.12,0,10.35,2.449,13.69,7.123l233.739,333.913v0.11
		C514.002,497.085,505.655,512,492.522,512z"/>
	<path style="fill:#2488FF;" d="M169.436,512l22.064-79.429c2.239-8.946-3.196-18.011-12.141-20.244
		c-9.043-2.272-18.021,3.207-20.25,12.147L134.796,512H169.436z"/>
</g>
<path style="fill:#EEBE43;" d="M102.957,200.348c-55.239,0-100.174-44.94-100.174-100.174S47.717,0,102.957,0
	c10.12,0,20.413,1.783,31.446,5.451c6.685,2.223,11.261,8.408,11.424,15.457c0.162,7.043-4.119,13.434-10.695,15.968
	c-19.544,7.522-32.175,25.815-32.175,46.603c0,27.619,22.468,50.087,50.087,50.087c4.196,0,8.674-0.745,14.087-2.337
	c6.826-1.968,14.087,0.5,18.228,6.201c4.142,5.712,4.25,13.419,0.272,19.245C166.902,184.022,136.001,200.348,102.957,200.348z"/>
<path style="fill:#E6EBF0;" d="M409.043,50.087c0,9.238-7.456,16.696-16.696,16.696h-16.696v16.696
	c0,9.238-7.456,16.696-16.696,16.696c-9.239,0-16.696-7.457-16.696-16.696V66.783h-16.696c-9.239,0-16.696-7.457-16.696-16.696
	s7.456-16.696,16.696-16.696h16.696V16.696C342.261,7.457,349.717,0,358.957,0c9.239,0,16.696,7.457,16.696,16.696v16.696h16.696
	C401.587,33.391,409.043,40.849,409.043,50.087z"/>
<path style="fill:#D1DAE4;" d="M409.043,50.087c0,9.238-7.456,16.696-16.696,16.696h-16.696v16.696
	c0,9.238-7.456,16.696-16.696,16.696V0c9.239,0,16.696,7.457,16.696,16.696v16.696h16.696
	C401.587,33.391,409.043,40.849,409.043,50.087z"/>
<path style="fill:#E6EBF0;" d="M509.217,161.391c0,9.238-7.456,16.696-16.696,16.696h-16.696v16.696
	c0,9.238-7.456,16.696-16.696,16.696c-9.239,0-16.696-7.457-16.696-16.696v-16.696h-16.696c-9.239,0-16.696-7.457-16.696-16.696
	s7.456-16.696,16.696-16.696h16.696V128c0-9.238,7.456-16.696,16.696-16.696c9.239,0,16.696,7.457,16.696,16.696v16.696h16.696
	C501.761,144.696,509.217,152.153,509.217,161.391z"/>
<path style="fill:#D1DAE4;" d="M509.217,161.391c0,9.238-7.456,16.696-16.696,16.696h-16.696v16.696
	c0,9.238-7.456,16.696-16.696,16.696V111.304c9.239,0,16.696,7.457,16.696,16.696v16.696h16.696
	C501.761,144.696,509.217,152.153,509.217,161.391z"/>
<polygon style="fill:#615349;" points="392.348,512 258.783,512 258.783,289.391 258.783,289.391 "/>
<g>
</g>
<g>
</g>
<g>
</g>
<g>
</g>
<g>
</g>
<g>
</g>
<g>
</g>
<g>
</g>
<g>
</g>
<g>
</g>
<g>
</g>
<g>
</g>
<g>
</g>
<g>
</g>
<g>
</g>
</svg>
