<?xml version="1.0" encoding="iso-8859-1"?>
<!-- Generator: Adobe Illustrator 19.0.0, SVG Export Plug-In . SVG Version: 6.00 Build 0)  -->
<svg version="1.1" id="Capa_1" xmlns="http://www.w3.org/2000/svg" xmlns:xlink="http://www.w3.org/1999/xlink" x="0px" y="0px"
	 viewBox="0 0 511.999 511.999" style="enable-background:new 0 0 511.999 511.999;" xml:space="preserve">
<path style="fill:#B38A82;" d="M189.015,391.377l-50.193-20c-24.973-9.95-41.085-33.749-41.047-60.631l0.084-60.93l34.796,0.048
	l-0.084,60.931c-0.018,12.528,7.492,23.621,19.131,28.258l50.193,20L189.015,391.377z"/>
<path style="opacity:0.1;enable-background:new    ;" d="M97.789,300.596c1.222,0.175,2.439,0.424,3.636,0.792
	c7.963,2.448,16.465,3.776,25.299,3.776c1.97,0,3.92-0.082,5.854-0.212l0.076-55.09l-34.796-0.048L97.789,300.596z"/>
<path style="fill:#B38A82;" d="M297.48,375.407l-12.835-32.342l78.028-30.966c10.513-4.172,17.306-14.176,17.306-25.487v-62.936
	h34.796v62.936c0,25.664-15.413,48.363-39.266,57.829L297.48,375.407z"/>
<path style="opacity:0.1;enable-background:new    ;" d="M414.774,273.691v-50.016h-34.795v46.104
	c1.447-0.525,2.874-1.121,4.271-1.802c6.389-3.116,13.893-2.676,20.042,0.889C407.569,270.766,411.081,272.382,414.774,273.691z"/>
<path style="fill:#B38A82;" d="M309.856,220.277H195.82L180.348,484.52c-0.635,10.841,7.986,19.98,18.845,19.98h107.289
	c10.859,0,19.48-9.14,18.845-19.98L309.856,220.277z"/>
<path style="opacity:0.1;enable-background:new    ;" d="M309.856,220.277H195.82l-4.384,74.879c2.56-1.025,5.091-2.167,7.578-3.452
	c6.357-3.284,14.104-2.669,19.807,1.654c15.1,11.445,34.305,18.304,55.223,18.304c14.652,0,28.465-3.366,40.618-9.312
	L309.856,220.277z"/>
<g style="opacity:0.1;">
	<path d="M214.508,337.669c-0.268,0-0.538-0.014-0.811-0.043c-4.118-0.443-7.098-4.14-6.655-8.259
		c0.859-7.995,2.727-15.46,4.227-21.459c0.362-1.447,0.699-2.794,0.987-4.019c0.949-4.032,4.986-6.53,9.018-5.583
		c4.032,0.949,6.532,4.987,5.583,9.019c-0.303,1.288-0.657,2.703-1.037,4.223c-1.388,5.551-3.116,12.458-3.865,19.423
		C221.542,334.816,218.29,337.669,214.508,337.669z"/>
	<path d="M287.143,424.183c-3.911,0-7.207-3.033-7.476-6.994c-0.474-6.987-1.314-12.523-2.203-18.383
		c-0.843-5.556-1.715-11.302-2.419-18.919c-0.381-4.125,2.654-7.777,6.778-8.158c4.121-0.379,7.777,2.653,8.158,6.778
		c0.663,7.18,1.502,12.705,2.313,18.048c0.937,6.177,1.823,12.012,2.338,19.621c0.28,4.132-2.843,7.71-6.976,7.99
		C287.485,424.177,287.313,424.183,287.143,424.183z"/>
	<path d="M282.585,297.191c-3.963,0-7.275-3.106-7.483-7.11c-0.272-5.219-1.658-12.464-2.67-17.754
		c-0.823-4.303-1.295-6.826-1.414-8.64c-0.271-4.133,2.859-7.704,6.993-7.975c4.136-0.261,7.704,2.859,7.975,6.993
		c0.064,0.977,0.656,4.072,1.179,6.804c1.155,6.036,2.592,13.546,2.917,19.794c0.215,4.137-2.964,7.664-7.1,7.879
		C282.848,297.188,282.717,297.191,282.585,297.191z"/>
	<path d="M226.114,467.523c-4.142,0-7.5-3.358-7.5-7.5c0-2.785,0.692-6.514,1.567-11.235c1.081-5.828,2.426-13.081,2.426-18.936
		c0-4.142,3.358-7.5,7.5-7.5s7.5,3.358,7.5,7.5c0,7.234-1.485,15.239-2.678,21.671c-0.617,3.325-1.316,7.094-1.316,8.499
		C233.614,464.165,230.256,467.523,226.114,467.523z"/>
</g>
<path style="fill:#8ADBA1;" d="M349.951,61.824c-12.172-12.173-27.843-18.933-44.319-20.426c-5.435-0.493-10.46-3.219-13.591-7.689
	C280.988,17.928,261.923,7.5,240.245,7.5c-22.752,0-42.626,11.486-53.378,28.593c-2.938,4.674-7.932,7.698-13.416,8.322
	c-42.802,4.866-75.714,34.2-75.714,69.68c0,7.64,1.53,14.993,4.354,21.88c2.308,5.628,2.062,12.032-1.095,17.232
	c-18.842,31.038-16.409,70.212,8.329,94.95c23.36,23.36,59.59,26.827,89.689,11.276c6.357-3.284,14.104-2.669,19.807,1.654
	c15.1,11.445,34.305,18.304,55.223,18.304c48.614,0,88.024-37.003,88.024-82.648c0-9.02-1.552-17.696-4.403-25.819
	c-1.821-5.186-1.263-10.889,1.497-15.643C377.033,124.487,374.294,86.167,349.951,61.824z"/>
<path style="opacity:0.1;enable-background:new    ;" d="M173.933,151.192c-25.022-27.521-22.039-84.667-10.749-105.09
	c-37.683,8.026-65.448,35.41-65.448,67.993c0,7.64,1.53,14.993,4.354,21.88c2.308,5.628,2.062,12.032-1.095,17.232
	c-18.842,31.038-16.409,70.212,8.329,94.95c23.36,23.36,59.59,26.827,89.689,11.276c6.357-3.284,14.104-2.669,19.807,1.654
	c15.1,11.445,34.305,18.304,55.223,18.304c17.838,0,34.433-4.987,48.3-13.549C237.849,278.326,186.819,200,180.796,165.624
	C179.858,160.267,177.59,155.214,173.933,151.192z"/>
<g>
	<path style="fill:#A8EFBB;" d="M212.696,155.011c-12.453-12.453-29.802-17.011-45.849-13.692
		c-4.042,0.836-8.229,0.397-12.132-0.948c-8.729-3.007-18.153-4.656-27.991-4.656c-13.142,0-25.556,2.927-36.547,8.124
		c-5.433,2.568-11.593,3.06-17.333,1.281c-17.281-5.355-36.876-1.192-50.558,12.49c-16.598,16.598-19.179,41.895-7.759,61.208
		c2.951,4.99,4.016,10.828,3.011,16.538c-2.582,14.664,1.784,30.31,13.112,41.638c14.515,14.515,36.122,17.61,53.664,9.29
		c5.363-2.543,11.437-2.976,17.111-1.232c7.963,2.448,16.465,3.776,25.299,3.776c9.497,0,18.608-1.539,27.081-4.352
		c4.169-1.384,8.62-1.697,12.9-0.707c14.906,3.451,31.201-0.623,42.817-12.24c12.001-12.001,15.956-28.995,11.875-44.293
		c-1.379-5.17-0.822-10.667,1.419-15.526C231.398,193.104,228.031,170.346,212.696,155.011z"/>
	<path style="fill:#A8EFBB;" d="M493.487,110.393c-14.502-14.502-35.209-19.198-54.279-14.269
		c-5.875,1.518-12.083,0.503-17.177-2.793c-6.888-4.457-15.096-7.046-23.911-7.046c-13.206,0-25.056,5.806-33.138,15.003
		c-3.302,3.758-7.918,6.103-12.873,6.791c-28.245,3.923-49.831,25.172-49.831,50.814c0,13.923,6.367,26.55,16.707,35.815
		c4.206,3.768,6.752,9.071,6.998,14.713c0.465,10.628,4.749,21.118,12.864,29.233c13.665,13.665,34.063,16.482,50.51,8.461
		c6.389-3.116,13.893-2.676,20.043,0.889c9.395,5.446,20.678,8.624,32.821,8.624c32.728,0,59.26-23.047,59.26-51.478
		c0-3.778-0.474-7.459-1.367-11.004c-1.288-5.109-0.667-10.559,1.904-15.158C514.466,156.716,511.736,128.642,493.487,110.393z"/>
</g>
<path style="opacity:0.05;enable-background:new    ;" d="M467.413,250.576c-62.42,10.473-84.525-48.77-87.161-67.978
	c-0.331-2.414-1.299-4.679-2.772-6.62c-21.329-28.103-11.301-69.658-2.665-84.579c-5.681,2.578-10.723,6.319-14.81,10.928
	c-3.272,3.689-7.682,6.235-12.57,6.882c-28.458,3.764-50.265,25.1-50.265,50.872c0,13.923,6.367,26.55,16.706,35.814
	c4.248,3.806,6.734,9.208,7.007,14.905c0.507,10.562,4.789,20.975,12.855,29.041c13.669,13.669,34.075,16.484,50.524,8.454
	c6.438-3.143,14.015-2.56,20.226,1.01c9.355,5.376,20.566,8.51,32.624,8.51C448.187,257.815,458.546,255.169,467.413,250.576z"/>
<path style="opacity:0.1;enable-background:new    ;" d="M96.834,265.076c-17.795-5.081-36.752-29.425-36.826-47.242
	c-0.012-2.913-1.168-5.735-3.244-7.778c-20.033-19.718-11.334-52.545,4.477-67.085c-13.979-0.925-28.27,3.954-38.954,14.638
	c-16.598,16.598-19.179,41.895-7.759,61.208c2.91,4.922,4.067,10.695,3.05,16.321c-2.664,14.726,1.689,30.471,13.073,41.855
	c14.548,14.548,36.22,17.624,53.784,9.233c5.302-2.533,11.373-2.902,16.99-1.175c7.964,2.448,16.466,3.776,25.3,3.776
	c6.343,0,12.508-0.701,18.431-1.995c-22.504,3.187-35.542-8.593-40.965-16.454C102.421,267.813,99.831,265.932,96.834,265.076z"/>
<path d="M503.456,183.835c14.309-25.6,10.289-57.492-9.775-77.556c-15.977-15.979-38.952-22.047-61.459-16.228
	c-3.816,0.986-7.907,0.319-11.226-1.829c-8.341-5.396-18.018-8.249-27.985-8.249c-6.969,0-13.775,1.427-20.057,4.08
	c-3.909-10.359-9.923-19.755-17.7-27.532c-13.062-13.062-29.987-20.874-48.945-22.592c-3.364-0.305-6.326-1.953-8.125-4.522
	C285.287,10.993,263.627,0,240.245,0c-24.395,0-47.282,12.301-59.728,32.102c-1.68,2.672-4.638,4.489-7.914,4.861
	c-24.07,2.736-45.767,12.723-61.092,28.119c-2.922,2.936-2.911,7.685,0.024,10.606c2.935,2.922,7.684,2.911,10.606-0.024
	c12.933-12.993,31.456-21.444,52.156-23.797c7.879-0.896,14.775-5.19,18.919-11.783C202.942,24.612,220.962,15,240.245,15
	c18.494,0,35.561,8.603,45.653,23.012c4.338,6.194,11.285,10.151,19.057,10.855c15.418,1.397,29.144,7.711,39.692,18.26
	c6.93,6.93,12.132,15.47,15.224,24.909c-1.999,1.675-3.887,3.503-5.632,5.489c-2.043,2.324-4.98,3.856-8.271,4.313
	c-32.622,4.53-56.299,29.024-56.299,58.242c0,15.602,6.819,30.305,19.202,41.401c2.71,2.428,4.354,5.874,4.511,9.454
	c0.564,12.917,5.911,25.066,15.054,34.209c1.234,1.234,2.525,2.387,3.856,3.475c-6.425,6.306-13.862,11.445-21.999,15.275
	c-0.408,0.146-0.796,0.328-1.166,0.539c-10.758,4.859-22.688,7.457-35.085,7.457c-16.852,0-33.351-5.006-46.979-14.152
	c3.806-10.233,4.476-21.575,1.58-32.435c-0.907-3.4-0.558-7.112,0.983-10.452c10.103-21.906,5.431-48.085-11.628-65.144
	c-13.816-13.816-33.505-19.698-52.67-15.734c-2.517,0.52-5.341,0.28-8.17-0.694c-9.756-3.361-19.995-5.065-30.434-5.065
	c-6.41,0-12.693,0.635-18.818,1.88c-1.765-5.203-2.67-10.569-2.67-16c0-3.789,0.438-7.582,1.301-11.274
	c0.943-4.033-1.563-8.067-5.596-9.01c-4.035-0.945-8.067,1.563-9.01,5.596c-1.124,4.81-1.694,9.752-1.694,14.688
	c0,6.86,1.108,13.627,3.261,20.185c-2.202,0.841-4.379,1.763-6.525,2.778c-3.781,1.787-8.008,2.106-11.907,0.897
	c-20.592-6.38-42.848-0.882-58.081,14.351c-18.686,18.685-22.35,47.606-8.912,70.33c2.033,3.438,2.771,7.493,2.08,11.419
	c-3.098,17.595,2.582,35.629,15.195,48.242c10.487,10.487,24.542,16.024,38.785,16.023c7.936,0,15.931-1.72,23.396-5.26
	c0.898-0.426,1.826-0.763,2.772-1.015l-0.026,18.69c-0.042,29.977,17.924,56.515,45.771,67.609l42.025,16.746l-5.21,88.991
	c-0.423,7.22,2.181,14.378,7.144,19.64c4.962,5.262,11.956,8.279,19.188,8.279h107.29c7.232,0,14.227-3.018,19.189-8.279
	c4.962-5.262,7.566-12.42,7.143-19.64L331.931,469c-0.243-4.135-3.787-7.3-7.926-7.049c-4.135,0.242-7.29,3.79-7.049,7.926
	l0.883,15.081c0.185,3.16-0.909,6.168-3.081,8.471c-2.171,2.303-5.111,3.571-8.276,3.571h-107.29c-3.165,0-6.104-1.268-8.276-3.571
	s-3.266-5.311-3.081-8.471l5.518-94.246c0.001-0.008,0.001-0.016,0.001-0.023l2.142-36.58c0.001-0.007,0.001-0.014,0.001-0.021
	l3.894-66.5c5.639-2.603,10.875-6.196,15.433-10.755c1.841-1.841,3.524-3.805,5.054-5.864
	c15.851,10.298,34.826,15.923,54.164,15.923c11.059,0,21.814-1.765,31.9-5.121l2.885,49.266c0.001,0.016,0.001,0.032,0.003,0.047
	l2.139,36.536c0.001,0.017,0.002,0.034,0.003,0.051l3.888,66.396c0.233,3.986,3.539,7.062,7.48,7.062
	c0.147,0,0.296-0.004,0.445-0.013c4.135-0.242,7.291-3.79,7.049-7.926l-3.579-61.133l52.019-20.645
	c26.728-10.607,43.999-36.043,43.999-64.8v-22.766c4.834,0.969,9.805,1.47,14.839,1.47c36.812,0,66.76-26.458,66.76-58.978
	c0-4.32-0.537-8.639-1.595-12.837C501.431,190.141,501.85,186.708,503.456,183.835z M178.995,379.31l-37.397-14.901
	c-22.099-8.805-36.357-29.865-36.323-53.654l0.023-16.902c6.46,1.514,13.089,2.329,19.792,2.444l-0.02,14.486
	c-0.022,15.623,9.342,29.453,23.855,35.236l31.289,12.468L178.995,379.31z M181.138,342.708l-26.66-10.623
	c-8.766-3.493-14.421-11.846-14.408-21.281l0.021-15.444c5.463-0.782,10.84-2.029,16.077-3.768c2.977-0.988,6.037-1.167,8.844-0.518
	c6.388,1.479,12.839,1.748,19.094,0.93L181.138,342.708z M216.006,208.569c-3.003,6.511-3.662,13.827-1.855,20.6
	c3.523,13.208-0.283,27.408-9.932,37.057c-4.093,4.093-8.936,7.126-14.17,9.005c-0.186,0.055-0.369,0.115-0.548,0.183
	c-6.667,2.279-13.942,2.705-21.104,1.048c-5.495-1.273-11.358-0.963-16.955,0.895c-7.934,2.634-16.25,3.97-24.717,3.97
	c-7.889,0-15.659-1.159-23.095-3.445c-7.474-2.297-15.475-1.721-22.528,1.625c-15.145,7.183-33.288,4.042-45.147-7.817
	c-9.157-9.156-13.28-22.253-11.029-35.033c1.313-7.449-0.087-15.14-3.941-21.656c-9.951-16.828-7.234-38.248,6.607-52.088
	c8.176-8.176,19.085-12.566,30.279-12.566c4.255,0,8.553,0.634,12.756,1.937c7.492,2.322,15.576,1.731,22.758-1.665
	c10.392-4.913,21.61-7.404,33.341-7.404c8.772,0,17.368,1.429,25.548,4.247c5.374,1.852,10.94,2.267,16.094,1.202
	c14.202-2.939,28.793,1.417,39.026,11.651C220.029,172.95,223.49,192.342,216.006,208.569z M320.603,275.52
	c9.291-4.9,17.734-11.302,24.971-19.034c8.495,3.434,17.792,4.562,26.905,3.216v26.909c0,8.217-4.935,15.485-12.573,18.516
	l-36.716,14.571L320.603,275.52z M407.274,286.611c0,22.57-13.555,42.533-34.533,50.858l-47.41,18.815l-1.219-20.814l41.326-16.401
	c13.389-5.313,22.04-18.054,22.04-32.458V255.07c0.019-0.009,0.039-0.017,0.058-0.027c4.046-1.973,8.902-1.735,12.994,0.637
	c2.179,1.263,4.433,2.401,6.744,3.423V286.611z M490.363,176.516c-3.482,6.23-4.416,13.564-2.629,20.65
	c0.756,3.001,1.14,6.086,1.14,9.171c0,24.249-23.219,43.978-51.76,43.978c-10.42,0-20.469-2.632-29.06-7.612
	c-4.575-2.652-9.654-3.99-14.709-3.99c-4.249,0-8.481,0.945-12.383,2.848c-14.03,6.843-30.875,4.02-41.919-7.022
	c-6.483-6.483-10.274-15.098-10.675-24.257c-0.332-7.587-3.789-14.867-9.486-19.971c-9.165-8.212-14.211-18.948-14.211-30.229
	c0-21.65,18.237-39.896,43.363-43.385c6.853-0.952,13.058-4.244,17.474-9.269c6.954-7.914,16.979-12.454,27.504-12.454
	c7.07,0,13.93,2.02,19.837,5.842c6.834,4.421,15.264,5.791,23.128,3.757c17.309-4.473,34.917,0.129,47.099,12.312
	C498.416,132.226,501.412,156.747,490.363,176.516z"/>
<g>
</g>
<g>
</g>
<g>
</g>
<g>
</g>
<g>
</g>
<g>
</g>
<g>
</g>
<g>
</g>
<g>
</g>
<g>
</g>
<g>
</g>
<g>
</g>
<g>
</g>
<g>
</g>
<g>
</g>
</svg>
