<?xml version="1.0" encoding="iso-8859-1"?>
<!-- Generator: Adobe Illustrator 19.0.0, SVG Export Plug-In . SVG Version: 6.00 Build 0)  -->
<svg version="1.1" id="Capa_1" xmlns="http://www.w3.org/2000/svg" xmlns:xlink="http://www.w3.org/1999/xlink" x="0px" y="0px"
	 viewBox="0 0 512 512" style="enable-background:new 0 0 512 512;" xml:space="preserve">
<path style="fill:#B38A82;" d="M186.95,395.461l-51.708-20.604c-25.726-10.25-42.325-34.768-42.286-62.461l0.087-62.769l35.846,0.05
	l-0.087,62.77c-0.018,12.907,7.718,24.334,19.709,29.111l51.708,20.604L186.95,395.461z"/>
<path style="opacity:0.1;enable-background:new    ;" d="M92.97,301.941c1.259,0.18,2.513,0.437,3.746,0.816
	c8.204,2.522,16.962,3.89,26.063,3.89c2.03,0,4.038-0.084,6.031-0.218l0.079-56.752l-35.846-0.049L92.97,301.941z"/>
<path style="fill:#B38A82;" d="M298.688,379.01l-13.223-33.319l80.383-31.901c10.83-4.298,17.828-14.604,17.828-26.257v-64.834
	h35.846v64.835c0,26.438-15.878,49.822-40.452,59.574L298.688,379.01z"/>
<path style="opacity:0.1;enable-background:new    ;" d="M419.522,274.224v-51.525h-35.846v47.496
	c1.491-0.541,2.961-1.155,4.4-1.857c6.581-3.21,14.312-2.757,20.647,0.916C412.1,271.211,415.717,272.876,419.522,274.224z"/>
<path style="fill:#B38A82;" d="M311.437,219.198H193.959l-15.938,272.218c-0.654,11.168,8.226,20.583,19.413,20.583h110.527
	c11.187,0,20.068-9.415,19.414-20.583L311.437,219.198z"/>
<path style="opacity:0.1;enable-background:new    ;" d="M311.437,219.198H193.959l-4.516,77.139
	c2.637-1.056,5.245-2.232,7.806-3.556c6.549-3.383,14.53-2.749,20.405,1.703c15.556,11.791,35.34,18.857,56.89,18.857
	c15.094,0,29.324-3.467,41.844-9.592L311.437,219.198z"/>
<g style="opacity:0.1;">
	<path d="M213.105,341.25c-0.268,0-0.539-0.014-0.811-0.043c-4.118-0.443-7.098-4.14-6.655-8.259
		c0.887-8.25,2.815-15.961,4.365-22.157c0.374-1.499,0.724-2.895,1.023-4.164c0.949-4.032,4.988-6.531,9.018-5.583
		c4.032,0.949,6.531,4.986,5.583,9.019c-0.313,1.332-0.679,2.795-1.072,4.368c-1.438,5.748-3.227,12.901-4.003,20.121
		C220.139,338.397,216.887,341.25,213.105,341.25z"/>
	<path d="M288.234,430.735c-3.911,0-7.207-3.033-7.476-6.993c-0.49-7.238-1.36-12.969-2.281-19.036
		c-0.871-5.744-1.773-11.683-2.5-19.554c-0.381-4.125,2.653-7.777,6.778-8.158c4.116-0.38,7.777,2.653,8.158,6.778
		c0.687,7.435,1.555,13.153,2.394,18.683c0.969,6.384,1.884,12.414,2.417,20.272c0.28,4.133-2.843,7.71-6.976,7.99
		C288.576,430.729,288.404,430.735,288.234,430.735z"/>
	<path d="M283.52,299.381c-3.963,0-7.275-3.106-7.483-7.11c-0.282-5.414-1.717-12.916-2.765-18.393
		c-0.85-4.445-1.337-7.051-1.459-8.913c-0.27-4.133,2.861-7.703,6.994-7.974c4.133-0.276,7.703,2.861,7.974,6.994
		c0.067,1.026,0.682,4.239,1.224,7.074c1.192,6.233,2.677,13.99,3.012,20.433c0.215,4.137-2.963,7.664-7.1,7.879
		C283.784,299.378,283.651,299.381,283.52,299.381z"/>
	<path d="M225.109,475.563c-4.142,0-7.5-3.358-7.5-7.5c0-2.856,0.713-6.703,1.617-11.573c1.12-6.039,2.514-13.554,2.514-19.634
		c0-4.142,3.358-7.5,7.5-7.5s7.5,3.358,7.5,7.5c0,7.459-1.533,15.726-2.765,22.369c-0.64,3.45-1.365,7.36-1.365,8.837
		C232.609,472.205,229.251,475.563,225.109,475.563z"/>
</g>
<path style="fill:#67C787;" d="M352.742,55.963c-12.54-12.54-28.683-19.504-45.656-21.042c-5.599-0.507-10.776-3.316-14.001-7.921
	c-11.387-16.257-31.027-27-53.359-27c-23.439,0-43.912,11.833-54.99,29.456c-3.026,4.815-8.171,7.931-13.821,8.573
	c-44.094,5.013-77.999,35.232-77.999,71.783c0,7.87,1.576,15.446,4.486,22.54c2.378,5.798,2.124,12.395-1.128,17.752
	c-19.41,31.975-16.904,72.331,8.581,97.815c24.065,24.065,61.388,27.636,92.396,11.616c6.549-3.383,14.53-2.749,20.405,1.703
	c15.556,11.791,35.34,18.857,56.89,18.857c50.082,0,90.681-38.119,90.681-85.142c0-9.292-1.599-18.23-4.536-26.598
	c-1.876-5.343-1.301-11.218,1.542-16.115C380.642,120.517,377.82,81.041,352.742,55.963z"/>
<path style="opacity:0.1;enable-background:new    ;" d="M171.412,148.028c-25.778-28.351-22.704-87.223-11.073-108.262
	c-38.82,8.268-67.423,36.478-67.423,70.045c0,7.87,1.576,15.446,4.486,22.54c2.378,5.798,2.124,12.395-1.128,17.752
	c-19.41,31.975-16.904,72.331,8.581,97.815c24.065,24.065,61.388,27.636,92.396,11.616c6.549-3.383,14.53-2.749,20.404,1.703
	c15.556,11.791,35.34,18.857,56.89,18.857c18.376,0,35.472-5.137,49.758-13.958c-87.045,12.861-139.614-67.829-145.819-103.243
	C177.516,157.377,175.18,152.172,171.412,148.028z"/>
<g>
	<path style="fill:#8ADBA1;" d="M211.345,151.962c-12.829-12.829-30.701-17.525-47.232-14.106
		c-4.164,0.861-8.477,0.409-12.498-0.976c-8.992-3.098-18.701-4.796-28.836-4.796c-13.539,0-26.327,3.016-37.65,8.369
		c-5.597,2.646-11.943,3.152-17.856,1.32c-17.803-5.516-37.989-1.228-52.084,12.867C-1.91,171.739-4.569,197.8,7.196,217.696
		c3.04,5.141,4.137,11.155,3.101,17.037c-2.66,15.106,1.838,31.225,13.508,42.894c14.953,14.953,37.212,18.141,55.284,9.571
		c5.525-2.62,11.782-3.066,17.627-1.27c8.204,2.522,16.962,3.89,26.063,3.89c9.784,0,19.17-1.586,27.898-4.484
		c4.294-1.426,8.881-1.749,13.289-0.728c15.356,3.556,32.142-0.642,44.109-12.609c12.363-12.363,16.437-29.87,12.234-45.629
		c-1.421-5.326-0.847-10.989,1.462-15.994C230.611,191.205,227.143,167.759,211.345,151.962z"/>
	<path style="fill:#8ADBA1;" d="M495.348,107.222c-14.94-14.94-36.272-19.777-55.917-14.7c-6.052,1.564-12.448,0.518-17.696-2.877
		c-7.096-4.591-15.552-7.258-24.633-7.258c-13.605,0-25.812,5.981-34.138,15.456c-3.402,3.871-8.156,6.287-13.261,6.996
		c-29.098,4.041-51.335,25.932-51.335,52.347c0,14.343,6.559,27.351,17.211,36.896c4.333,3.882,6.956,9.345,7.21,15.157
		c0.479,10.948,4.892,21.755,13.252,30.115c14.077,14.077,35.091,16.979,52.035,8.716c6.581-3.21,14.312-2.757,20.647,0.916
		c9.678,5.61,21.302,8.884,33.812,8.884c33.716,0,61.049-23.743,61.049-53.031c0-3.892-0.488-7.684-1.409-11.336
		c-1.327-5.263-0.687-10.877,1.961-15.615C516.96,154.943,514.147,126.021,495.348,107.222z"/>
</g>
<path style="opacity:0.05;enable-background:new    ;" d="M473.75,250.412c-64.303,10.789-87.076-50.242-89.791-70.03
	c-0.341-2.487-1.338-4.82-2.856-6.82c-21.972-28.951-11.642-71.76-2.745-87.132c-5.853,2.655-11.046,6.509-15.257,11.258
	c-3.37,3.801-7.914,6.423-12.95,7.089c-29.317,3.878-51.782,25.858-51.782,52.408c0,14.343,6.559,27.351,17.21,36.895
	c4.376,3.921,6.937,9.486,7.219,15.355c0.523,10.881,4.934,21.608,13.243,29.918c14.081,14.081,35.103,16.981,52.049,8.709
	c6.632-3.237,14.438-2.637,20.836,1.04c9.638,5.538,21.187,8.766,33.608,8.766C453.943,257.869,464.615,255.143,473.75,250.412z"/>
<path style="opacity:0.1;enable-background:new    ;" d="M91.987,265.349c-18.332-5.234-37.861-30.313-37.938-48.667
	c-0.013-3.001-1.203-5.908-3.342-8.013c-20.637-20.313-11.676-54.131,4.612-69.11c-14.401-0.953-29.123,4.073-40.13,15.08
	c-17.099,17.099-19.758,43.159-7.993,63.055c2.998,5.07,4.19,11.018,3.142,16.814c-2.744,15.171,1.74,31.391,13.468,43.118
	c14.987,14.987,37.314,18.156,55.407,9.512c5.462-2.61,11.716-2.99,17.502-1.211c8.204,2.522,16.963,3.89,26.064,3.89
	c6.535,0,12.885-0.722,18.987-2.055c-23.184,3.284-36.615-8.852-42.201-16.951C97.742,268.169,95.073,266.231,91.987,265.349z"/>
<g>
</g>
<g>
</g>
<g>
</g>
<g>
</g>
<g>
</g>
<g>
</g>
<g>
</g>
<g>
</g>
<g>
</g>
<g>
</g>
<g>
</g>
<g>
</g>
<g>
</g>
<g>
</g>
<g>
</g>
</svg>
